<?xml version="1.0" encoding="utf-8"?>
<!-- Generator: Adobe Illustrator 22.1.0, SVG Export Plug-In . SVG Version: 6.00 Build 0)  -->
<svg version="1.1" id="Layer_1" xmlns="http://www.w3.org/2000/svg" xmlns:xlink="http://www.w3.org/1999/xlink" x="0px" y="0px"
	 viewBox="0 0 90 75" style="enable-background:new 0 0 90 75;" xml:space="preserve">
<style type="text/css">
	.st0{fill:#FFFFFF;filter:url(#Adobe_OpacityMaskFilter);}
	.st1{mask:url(#mask-3_1_);}
	.st2{fill:none;stroke:#29CC7A;stroke-width:3;stroke-linecap:round;stroke-linejoin:round;}
	.st3{fill:none;stroke:#29CC7A;stroke-width:2;stroke-dasharray:4,3;}
	.st4{fill:none;stroke:#29CC7A;stroke-width:3;}
	.st5{fill:#266CEF;}
	.st6{fill:none;stroke:#FFFFFF;stroke-width:2;}
</style>
<title>icon</title>
<desc>Created with Sketch.</desc>
<g id="Impact-Fund">
	<g id="TF-ImpactFund" transform="translate(-949.000000, -3147.000000)">
		<g id="social-impact" transform="translate(50.000000, 2871.000000)">
			<g id="Group-3" transform="translate(100.000000, 268.000000)">
				<g id="item" transform="translate(800.000000, 0.000000)">
					<defs>
						<filter id="Adobe_OpacityMaskFilter" filterUnits="userSpaceOnUse" x="-1" y="8" width="68" height="72">
							<feColorMatrix  type="matrix" values="1 0 0 0 0  0 1 0 0 0  0 0 1 0 0  0 0 0 1 0"/>
						</filter>
					</defs>
					<mask maskUnits="userSpaceOnUse" x="-1" y="8" width="68" height="72" id="mask-3_1_">
						<rect x="50" y="44" class="st0" width="37" height="37"/>
						<g>
							<path id="path-2_2_" d="M68.5,79C77.6,79,85,71.6,85,62.5S77.6,46,68.5,46S52,53.4,52,62.5S59.4,79,68.5,79z"/>
						</g>
					</mask>
					<g id="icon" transform="translate(1.000000, 10.000000)" class="st1">
						<polygon id="Path-5" class="st2" points="61.2,14.8 58.2,53.8 37.2,65.5 9.1,44.2 2.8,2.9 						"/>
						<path id="Path-6" class="st3" d="M9,44.5l24-15l28.3-14.2"/>
						<polyline id="Path-7" class="st4" points="2.7,3 32.7,29.6 36.9,64.7 						"/>
						<path id="Path-8" class="st4" d="M58.4,54.4L32.8,29.9"/>
						<g id="Combined-Shape">
							<g>
								<path id="path-1" class="st5" d="M3,6C1.3,6,0,4.7,0,3s1.3-3,3-3s3,1.3,3,3S4.7,6,3,6z M33,33c-1.7,0-3-1.3-3-3s1.3-3,3-3
									c1.7,0,3,1.3,3,3S34.7,33,33,33z M37,68c-1.7,0-3-1.3-3-3s1.3-3,3-3s3,1.3,3,3S38.7,68,37,68z M58,57c-1.7,0-3-1.3-3-3
									s1.3-3,3-3s3,1.3,3,3S59.7,57,58,57z M61,18c-1.7,0-3-1.3-3-3s1.3-3,3-3s3,1.3,3,3S62.7,18,61,18z M9,47c-1.7,0-3-1.3-3-3
									s1.3-3,3-3s3,1.3,3,3S10.7,47,9,47z"/>
							</g>
							<path class="st6" d="M3,7C0.8,7-1,5.2-1,3s1.8-4,4-4s4,1.8,4,4S5.2,7,3,7z M33,34c-2.2,0-4-1.8-4-4s1.8-4,4-4s4,1.8,4,4
								S35.2,34,33,34z M37,69c-2.2,0-4-1.8-4-4c0-2.2,1.8-4,4-4s4,1.8,4,4C41,67.2,39.2,69,37,69z M58,58c-2.2,0-4-1.8-4-4
								s1.8-4,4-4s4,1.8,4,4S60.2,58,58,58z M61,19c-2.2,0-4-1.8-4-4s1.8-4,4-4s4,1.8,4,4S63.2,19,61,19z M9,48c-2.2,0-4-1.8-4-4
								s1.8-4,4-4s4,1.8,4,4S11.2,48,9,48z"/>
						</g>
					</g>
				</g>
			</g>
		</g>
	</g>
</g>
</svg>
