<?xml version="1.0" encoding="utf-8"?>
<!-- Generator: Adobe Illustrator 22.1.0, SVG Export Plug-In . SVG Version: 6.00 Build 0)  -->
<svg version="1.1" id="Capa_1" xmlns="http://www.w3.org/2000/svg" xmlns:xlink="http://www.w3.org/1999/xlink" x="0px" y="0px"
	 viewBox="0 0 46.3 46.3" style="enable-background:new 0 0 46.3 46.3;" xml:space="preserve">
<style type="text/css">
	.st0{fill:#29CC7A;}
	.st1{fill:#266CEF;}
	.st2{fill:#FFFFFF;}
</style>
<g id="Impact-Fund">
	<g id="TF-ImpactFund" transform="translate(-949.000000, -3147.000000)">
		<g id="social-impact" transform="translate(50.000000, 2871.000000)">
			<g id="Group-3" transform="translate(100.000000, 268.000000)">
				<g id="item" transform="translate(800.000000, 0.000000)">
					<g id="icon" transform="translate(1.000000, 10.000000)">
						<g id="Path-5">
							<path class="st0" d="M23.3,39.2c-0.2,0-0.3-0.1-0.5-0.2L7.8,27.6c-0.2-0.1-0.3-0.3-0.3-0.5L4.1,4.9c0-0.3,0.1-0.5,0.2-0.7
								C4.5,4,4.8,4,5,4l31.3,6.4c0.4,0.1,0.7,0.4,0.6,0.9l-1.6,20.9c0,0.3-0.2,0.5-0.4,0.6l-11.3,6.3
								C23.6,39.2,23.5,39.2,23.3,39.2z M9,26.5l14.4,10.9l10.4-5.8l1.5-19.8l-29.5-6L9,26.5z"/>
						</g>
						<g id="Path-6">
							<path class="st0" d="M8.5,27.6l-0.6-0.9l1.8-1.1l0.6,0.9L8.5,27.6z M11.7,25.6l-0.6-0.9l1.8-1.1l0.6,0.9L11.7,25.6z
								 M14.8,23.6l-0.6-0.9l1.8-1.1l0.6,0.9L14.8,23.6z M18,21.6l-0.6-0.9l1.8-1.1l0.6,0.9L18,21.6z M21.2,19.6l-0.6-0.9l0.1-0.1
								l1.8-0.9l0.5,1L21.2,19.6z M24.5,17.9L24,17l1.9-1l0.5,1L24.5,17.9z M27.9,16.3l-0.5-1l1.9-1l0.5,1L27.9,16.3z M31.2,14.6
								l-0.5-1l1.9-1l0.5,1L31.2,14.6z M34.6,12.9l-0.5-1l1.9-1l0.5,1L34.6,12.9z"/>
						</g>
						<g id="Path-7">
							<polygon class="st0" points="22.4,38.1 20.1,19.5 4.3,5.5 5.3,4.3 21.7,18.7 24,37.9 							"/>
						</g>
						<g id="Path-8">
							
								<rect x="27" y="16.4" transform="matrix(0.6914 -0.7225 0.7225 0.6914 -10.0975 28.0877)" class="st0" width="1.6" height="19"/>
						</g>
						<g id="Combined-Shape">
							<g>
								<g id="path-1">
									<path class="st1" d="M5,6.5c-0.9,0-1.6-0.7-1.6-1.6S4.1,3.2,5,3.2s1.6,0.7,1.6,1.6S5.9,6.5,5,6.5z M21.1,21
										c-0.9,0-1.6-0.7-1.6-1.6c0-0.9,0.7-1.6,1.6-1.6c0.9,0,1.6,0.7,1.6,1.6C22.7,20.3,22,21,21.1,21z M23.2,39.7
										c-0.9,0-1.6-0.7-1.6-1.6s0.7-1.6,1.6-1.6c0.9,0,1.6,0.7,1.6,1.6C24.8,39,24.1,39.7,23.2,39.7z M34.5,33.8
										c-0.9,0-1.6-0.7-1.6-1.6s0.7-1.6,1.6-1.6s1.6,0.7,1.6,1.6S35.4,33.8,34.5,33.8z M36.1,12.9c-0.9,0-1.6-0.7-1.6-1.6
										c0-0.9,0.7-1.6,1.6-1.6s1.6,0.7,1.6,1.6C37.7,12.2,37,12.9,36.1,12.9z M8.2,28.5c-0.9,0-1.6-0.7-1.6-1.6
										c0-0.9,0.7-1.6,1.6-1.6s1.6,0.7,1.6,1.6C9.8,27.8,9.1,28.5,8.2,28.5z"/>
								</g>
							</g>
							<g>
								<path class="st2" d="M23.2,40.8c-1.5,0-2.7-1.2-2.7-2.7s1.2-2.7,2.7-2.7s2.7,1.2,2.7,2.7S24.7,40.8,23.2,40.8z M23.2,36.5
									c-0.9,0-1.6,0.7-1.6,1.6c0,0.9,0.7,1.6,1.6,1.6s1.6-0.7,1.6-1.6C24.8,37.2,24.1,36.5,23.2,36.5z M34.5,34.9
									c-1.5,0-2.7-1.2-2.7-2.7c0-1.5,1.2-2.7,2.7-2.7s2.7,1.2,2.7,2.7C37.2,33.7,36,34.9,34.5,34.9z M34.5,30.6
									c-0.9,0-1.6,0.7-1.6,1.6c0,0.9,0.7,1.6,1.6,1.6s1.6-0.7,1.6-1.6C36.1,31.3,35.4,30.6,34.5,30.6z M8.2,29.5
									c-1.5,0-2.7-1.2-2.7-2.7s1.2-2.7,2.7-2.7s2.7,1.2,2.7,2.7S9.7,29.5,8.2,29.5z M8.2,25.2c-0.9,0-1.6,0.7-1.6,1.6
									c0,0.9,0.7,1.6,1.6,1.6s1.6-0.7,1.6-1.6C9.8,26,9.1,25.2,8.2,25.2z M21.1,22c-1.5,0-2.7-1.2-2.7-2.7s1.2-2.7,2.7-2.7
									s2.7,1.2,2.7,2.7S22.5,22,21.1,22z M21.1,17.7c-0.9,0-1.6,0.7-1.6,1.6c0,0.9,0.7,1.6,1.6,1.6c0.9,0,1.6-0.7,1.6-1.6
									C22.7,18.5,22,17.7,21.1,17.7z M36.1,14c-1.5,0-2.7-1.2-2.7-2.7s1.2-2.7,2.7-2.7s2.7,1.2,2.7,2.7S37.6,14,36.1,14z
									 M36.1,9.7c-0.9,0-1.6,0.7-1.6,1.6c0,0.9,0.7,1.6,1.6,1.6s1.6-0.7,1.6-1.6C37.7,10.4,37,9.7,36.1,9.7z M5,7.5
									c-1.5,0-2.7-1.2-2.7-2.7S3.5,2.2,5,2.2s2.7,1.2,2.7,2.7S6.5,7.5,5,7.5z M5,3.2C4.1,3.2,3.4,4,3.4,4.9S4.1,6.5,5,6.5
									s1.6-0.7,1.6-1.6S5.9,3.2,5,3.2z"/>
							</g>
						</g>
					</g>
				</g>
			</g>
		</g>
	</g>
</g>
</svg>
