<?xml version="1.0" encoding="utf-8"?>
<!-- Generator: Adobe Illustrator 15.0.0, SVG Export Plug-In . SVG Version: 6.00 Build 0)  -->
<!DOCTYPE svg PUBLIC "-//W3C//DTD SVG 1.1//EN" "http://www.w3.org/Graphics/SVG/1.1/DTD/svg11.dtd">
<svg version="1.1" id="Layer_2" xmlns="http://www.w3.org/2000/svg" xmlns:xlink="http://www.w3.org/1999/xlink" x="0px" y="0px"
	 width="33.833px" height="33.25px" viewBox="-4.833 -4.25 33.833 33.25" enable-background="new -4.833 -4.25 33.833 33.25"
	 xml:space="preserve">
<path fill="#FFFFFF" d="M12.003,4.617C7.917,4.617,4.62,7.914,4.62,12c0,4.088,3.297,7.384,7.383,7.384s7.383-3.296,7.383-7.384
	C19.386,7.914,16.089,4.617,12.003,4.617z M12.003,16.8c-2.64,0-4.801-2.152-4.801-4.8s2.153-4.799,4.801-4.799
	c2.646,0,4.801,2.152,4.801,4.799S14.643,16.8,12.003,16.8z M21.411,4.314c0,0.958-0.773,1.721-1.723,1.721
	c-0.958,0-1.722-0.77-1.722-1.721c0-0.951,0.771-1.723,1.722-1.723C20.638,2.592,21.411,3.363,21.411,4.314z M26.301,6.063
	c-0.11-2.307-0.636-4.351-2.326-6.035c-1.685-1.683-3.727-2.21-6.034-2.327c-2.378-0.133-9.504-0.133-11.881,0
	C3.758-2.189,1.714-1.662,0.026,0.023C-1.666,1.706-2.186,3.75-2.301,6.056c-0.136,2.377-0.136,9.504,0,11.881
	c0.107,2.308,0.635,4.351,2.327,6.034c1.688,1.684,3.727,2.211,6.033,2.326c2.377,0.135,9.503,0.135,11.881,0
	c2.308-0.108,4.35-0.636,6.034-2.326c1.684-1.684,2.21-3.727,2.326-6.034C26.437,15.561,26.437,8.441,26.301,6.063L26.301,6.063z
	 M23.229,20.488c-0.502,1.261-1.471,2.23-2.738,2.737c-1.894,0.753-6.393,0.58-8.487,0.58s-6.599,0.166-8.489-0.58
	c-1.26-0.499-2.23-1.472-2.737-2.737C0.026,18.594,0.199,14.095,0.199,12S0.032,5.401,0.777,3.511
	c0.501-1.258,1.472-2.229,2.737-2.737c1.896-0.751,6.394-0.578,8.489-0.578s6.599-0.167,8.487,0.578
	c1.26,0.501,2.231,1.471,2.738,2.737C23.98,5.407,23.807,9.905,23.807,12S23.98,18.599,23.229,20.488z"/>
</svg>
