<?xml version="1.0" encoding="utf-8"?>
<!-- Generator: Adobe Illustrator 22.1.0, SVG Export Plug-In . SVG Version: 6.00 Build 0)  -->
<svg version="1.1" id="Capa_1" xmlns="http://www.w3.org/2000/svg" xmlns:xlink="http://www.w3.org/1999/xlink" x="0px" y="0px"
	 viewBox="0 0 80 80" style="enable-background:new 0 0 80 80;" xml:space="preserve">
<style type="text/css">
	.st0{fill:#2161ED;}
	.st1{fill:#25C56F;}
</style>
<g>
	<g>
		<g>
			<path class="st0" d="M78.7,28.8H1.5c-0.7,0-1.3,0.6-1.3,1.3v42.6c0,0.7,0.6,1.3,1.3,1.3h26.6v1h-5.3c-0.7,0-1.3,0.6-1.3,1.3
				c0,0.7,0.6,1.3,1.3,1.3h34.6c0.7,0,1.3-0.6,1.3-1.3c0-0.7-0.6-1.3-1.3-1.3h-4v-1h25.3c0.7,0,1.3-0.6,1.3-1.3V30.2
				C80,29.4,79.4,28.8,78.7,28.8z M50.7,75.1h-20v-1h20V75.1z M77.3,71.4H2.8V31.5h74.5V71.4z"/>
		</g>
	</g>
	<g>
		<g>
			<rect x="72.8" y="67.3" class="st1" width="2.7" height="2.7"/>
		</g>
	</g>
	<g>
		<g>
			<rect x="68.8" y="67.3" class="st1" width="2.7" height="2.7"/>
		</g>
	</g>
	<g>
		<g>
			<rect x="64.6" y="67.3" class="st1" width="2.7" height="2.7"/>
		</g>
	</g>
	<g>
		<g>
			<path class="st1" d="M57,9.2c-9.3-9.3-24.5-9.3-33.8,0c0,0,0,0,0,0c-0.5,0.5-0.5,1.4,0,1.9c0.5,0.5,1.3,0.5,1.8,0
				c8.3-8.3,21.8-8.3,30.1,0c0,0,0,0,0,0c0.2,0.2,0.6,0.4,0.9,0.4c0.7,0,1.3-0.6,1.3-1.3C57.4,9.8,57.2,9.5,57,9.2z"/>
		</g>
	</g>
	<g>
		<g>
			<path class="st1" d="M53,13.2c-7.1-7.1-18.7-7.1-25.8,0c0,0,0,0,0,0c-0.5,0.5-0.5,1.4,0,1.9c0.5,0.5,1.3,0.5,1.8,0
				c6.1-6.1,16-6.1,22.1,0c0.2,0.2,0.6,0.4,0.9,0.4c0.7,0,1.3-0.6,1.3-1.3C53.4,13.8,53.2,13.5,53,13.2z"/>
		</g>
	</g>
	<g>
		<g>
			<path class="st1" d="M49,17.2c-4.9-4.9-12.9-4.9-17.8,0c0,0,0,0,0,0c-0.5,0.5-0.5,1.4,0,1.9c0.5,0.5,1.3,0.5,1.8,0
				c3.9-3.9,10.2-3.9,14.1,0c0,0,0,0,0,0c0.2,0.2,0.6,0.4,0.9,0.4c0.7,0,1.3-0.6,1.3-1.3C49.4,17.8,49.2,17.5,49,17.2z"/>
		</g>
	</g>
	<g>
		<g>
			<path class="st1" d="M45,21.2c-2.7-2.7-7.1-2.7-9.9,0c-0.5,0.5-0.5,1.4,0,1.9c0.5,0.5,1.3,0.5,1.8,0c1.7-1.7,4.4-1.7,6.1,0
				c0.5,0.5,1.4,0.5,1.9,0C45.5,22.6,45.5,21.8,45,21.2z"/>
		</g>
	</g>
</g>
</svg>
