<?xml version="1.0" encoding="utf-8"?>
<!-- Generator: Adobe Illustrator 22.1.0, SVG Export Plug-In . SVG Version: 6.00 Build 0)  -->
<svg version="1.1" id="Capa_1" xmlns="http://www.w3.org/2000/svg" xmlns:xlink="http://www.w3.org/1999/xlink" x="0px" y="0px"
	 viewBox="0 0 46.3 46.3" style="enable-background:new 0 0 46.3 46.3;" xml:space="preserve">
<style type="text/css">
	.st0{fill:#2161ED;}
	.st1{fill:#25C56F;}
</style>
<g>
	<g>
		<g>
			<path class="st0" d="M44.3,16.6H0.9c-0.4,0-0.7,0.3-0.7,0.7v23.9c0,0.4,0.3,0.7,0.7,0.7h15v0.6h-3c-0.4,0-0.7,0.3-0.7,0.7
				c0,0.4,0.3,0.7,0.7,0.7h19.4c0.4,0,0.7-0.3,0.7-0.7c0-0.4-0.3-0.7-0.7-0.7h-2.2V42h14.2c0.4,0,0.7-0.3,0.7-0.7V17.4
				C45,16.9,44.7,16.6,44.3,16.6z M28.6,42.6H17.3V42h11.2V42.6z M43.5,40.5H1.6V18.1h41.9V40.5z"/>
		</g>
	</g>
	<g>
		<g>
			<rect x="40.9" y="38.2" class="st1" width="1.5" height="1.5"/>
		</g>
	</g>
	<g>
		<g>
			<rect x="38.7" y="38.2" class="st1" width="1.5" height="1.5"/>
		</g>
	</g>
	<g>
		<g>
			<rect x="36.4" y="38.2" class="st1" width="1.5" height="1.5"/>
		</g>
	</g>
	<g>
		<g>
			<path class="st1" d="M32.1,5.6c-5.2-5.2-13.8-5.2-19,0c0,0,0,0,0,0c-0.3,0.3-0.3,0.8,0,1.1c0.3,0.3,0.7,0.3,1,0
				C18.8,2,26.4,2,31,6.6c0,0,0,0,0,0c0.1,0.1,0.3,0.2,0.5,0.2c0.4,0,0.7-0.3,0.7-0.7C32.3,5.9,32.2,5.7,32.1,5.6z"/>
		</g>
	</g>
	<g>
		<g>
			<path class="st1" d="M29.8,7.8c-4-4-10.5-4-14.5,0c0,0,0,0,0,0c-0.3,0.3-0.3,0.8,0,1.1c0.3,0.3,0.7,0.3,1,0c3.4-3.4,9-3.4,12.4,0
				c0.1,0.1,0.3,0.2,0.5,0.2c0.4,0,0.7-0.3,0.7-0.7C30.1,8.2,30,8,29.8,7.8z"/>
		</g>
	</g>
	<g>
		<g>
			<path class="st1" d="M27.6,10.1c-2.8-2.8-7.3-2.8-10,0c0,0,0,0,0,0c-0.3,0.3-0.3,0.8,0,1.1c0.3,0.3,0.7,0.3,1,0
				c2.2-2.2,5.7-2.2,7.9,0c0,0,0,0,0,0c0.1,0.1,0.3,0.2,0.5,0.2c0.4,0,0.7-0.3,0.7-0.7C27.8,10.4,27.7,10.2,27.6,10.1z"/>
		</g>
	</g>
	<g>
		<g>
			<path class="st1" d="M25.3,12.3c-1.5-1.5-4-1.5-5.5,0c-0.3,0.3-0.3,0.8,0,1.1c0.3,0.3,0.7,0.3,1,0c0.9-0.9,2.5-0.9,3.4,0
				c0.3,0.3,0.8,0.3,1.1,0C25.6,13.1,25.6,12.6,25.3,12.3z"/>
		</g>
	</g>
</g>
</svg>
