<?xml version="1.0" encoding="utf-8"?>
<!-- Generator: Adobe Illustrator 22.1.0, SVG Export Plug-In . SVG Version: 6.00 Build 0)  -->
<svg version="1.1" id="Capa_1" xmlns="http://www.w3.org/2000/svg" xmlns:xlink="http://www.w3.org/1999/xlink" x="0px" y="0px"
	 viewBox="0 0 46.3 46.3" style="enable-background:new 0 0 46.3 46.3;" xml:space="preserve">
<style type="text/css">
	.st0{fill:#266CEF;}
	.st1{fill:#29CC7A;}
</style>
<g>
	<g>
		<path class="st0" d="M23.2,22.3l16.4-9.5L23.1,3.3L6.7,12.8L23.2,22.3z M22.6,23.3L6.1,13.7c-0.8-0.4-0.8-1.5,0-2l16.4-9.5
			c0.4-0.2,0.8-0.2,1.1,0l16.5,9.5c0.8,0.4,0.8,1.5,0,2l-16.4,9.5C23.4,23.5,23,23.5,22.6,23.3L22.6,23.3z"/>
		<path class="st0" d="M22.6,41.9V23.1L6.1,13.6v18.8L22.6,41.9z M22,42.8L5.6,33.4c-0.4-0.2-0.6-0.6-0.6-1V13.6
			c0-0.9,0.9-1.4,1.7-1l16.5,9.5c0.4,0.2,0.6,0.6,0.6,1v18.8C23.7,42.7,22.8,43.3,22,42.8z"/>
		<path class="st0" d="M40.2,32.4V13.6l-16.5,9.5v18.8L40.2,32.4z M40.7,33.4l-16.5,9.5c-0.8,0.4-1.7-0.1-1.7-1V23.1
			c0-0.4,0.2-0.8,0.6-1l16.5-9.5c0.8-0.4,1.7,0.1,1.7,1v18.8C41.3,32.8,41.1,33.2,40.7,33.4z"/>
	</g>
	<path class="st1" d="M10.7,21.7c0,0.8-0.6,1.1-1.4,0.6c-0.8-0.5-1.4-1.5-1.4-2.3c0-0.8,0.6-1.1,1.4-0.6
		C10,19.9,10.7,20.9,10.7,21.7z M15.2,24.6c0,0.8-0.6,1.1-1.4,0.6c-0.8-0.5-1.4-1.5-1.4-2.3c0-0.8,0.6-1.1,1.4-0.6
		C14.6,22.7,15.2,23.7,15.2,24.6z M19.7,27.4c0,0.8-0.6,1.1-1.4,0.6c-0.8-0.5-1.4-1.5-1.4-2.3c0-0.8,0.6-1.1,1.4-0.6
		C19.1,25.5,19.7,26.6,19.7,27.4z"/>
	<path class="st0" d="M27.4,26.5c-0.3,0.2-0.6,0.1-0.8-0.2s-0.1-0.6,0.2-0.8l6.8-4c0.3-0.2,0.6-0.1,0.8,0.2s0.1,0.6-0.2,0.8
		L27.4,26.5z M27.4,29.3c-0.3,0.2-0.6,0.1-0.8-0.2s-0.1-0.6,0.2-0.8l0,0l6.8-4c0.3-0.2,0.6-0.1,0.8,0.2s0.1,0.6-0.2,0.8l0,0
		L27.4,29.3z M27.4,32.1c-0.3,0.2-0.6,0.1-0.8-0.2s-0.1-0.6,0.2-0.8l0,0l6.8-4c0.3-0.2,0.6-0.1,0.8,0.2s0.1,0.6-0.2,0.8l0,0
		L27.4,32.1z"/>
</g>
</svg>
