<svg width="80" height="80" xmlns="http://www.w3.org/2000/svg"><g fill="none" fill-rule="evenodd"><g fill="#266CEF" fill-rule="nonzero"><path d="M39.09 38.521l28.942-16.708L38.91 5 9.968 21.708 39.09 38.521zm-1 1.732L8.969 23.44c-1.334-.77-1.334-2.694 0-3.464L37.909 3.268a2 2 0 0 1 2 0L69.032 20.08c1.334.77 1.334 2.694 0 3.464L40.091 40.253a2 2 0 0 1-2 0z"/><path d="M38.032 73V39.867L9 23.197V56.33L38.032 73zm-.996 1.734L8.004 58.064A2 2 0 0 1 7 56.33V23.197c0-1.537 1.663-2.5 2.996-1.734l29.032 16.67a2 2 0 0 1 1.004 1.734V73c0 1.537-1.662 2.5-2.996 1.734z"/><path d="M69 56.33V23.197l-29.032 16.67V73L69 56.33zm.996 1.734l-29.032 16.67c-1.334.766-2.996-.197-2.996-1.734V39.867a2 2 0 0 1 1.004-1.734l29.032-16.67c1.333-.766 2.996.197 2.996 1.734V56.33a2 2 0 0 1-1.004 1.734z"/></g><path d="M17 37.5c0 1.434-1.12 1.926-2.5 1.098-1.38-.829-2.5-2.663-2.5-4.098 0-1.434 1.12-1.926 2.5-1.098 1.38.829 2.5 2.663 2.5 4.098zm8 5c0 1.434-1.12 1.926-2.5 1.098-1.38-.829-2.5-2.663-2.5-4.098 0-1.434 1.12-1.926 2.5-1.098 1.38.829 2.5 2.663 2.5 4.098zm8 5c0 1.434-1.12 1.926-2.5 1.098-1.38-.829-2.5-2.663-2.5-4.098 0-1.434 1.12-1.926 2.5-1.098 1.38.829 2.5 2.663 2.5 4.098z" fill="#29CC7A"/><path d="M46.504 45.864a1 1 0 1 1-1.008-1.728l12-7a1 1 0 1 1 1.008 1.728l-12 7zm0 5a1 1 0 1 1-1.008-1.728l12-7a1 1 0 1 1 1.008 1.728l-12 7zm0 5a1 1 0 1 1-1.008-1.728l12-7a1 1 0 1 1 1.008 1.728l-12 7z" fill="#266CEF" fill-rule="nonzero"/></g></svg>