<?xml version="1.0" encoding="utf-8"?>
<!-- Generator: Adobe Illustrator 22.1.0, SVG Export Plug-In . SVG Version: 6.00 Build 0)  -->
<svg version="1.1" id="Capa_1" xmlns="http://www.w3.org/2000/svg" xmlns:xlink="http://www.w3.org/1999/xlink" x="0px" y="0px"
	 viewBox="0 0 46.3 46.3" style="enable-background:new 0 0 46.3 46.3;" xml:space="preserve">
<style type="text/css">
	.st0{fill:#25C56F;}
	.st1{fill:none;stroke:#2161ED;stroke-width:0.5;stroke-miterlimit:10;}
</style>
<path class="st0" d="M29.9,6L29,6.9c-3-3-7.8-3-10.7,0L17.3,6C20.8,2.6,26.4,2.6,29.9,6z M18.9,7.6l0.9,0.9c2.1-2.1,5.5-2.1,7.6,0
	l0.9-0.9C25.7,5,21.5,5,18.9,7.6z M20.5,9.2l0.9,0.9c1.2-1.2,3.2-1.2,4.4,0l0.9-0.9C25,7.5,22.2,7.5,20.5,9.2z M29.9,40.3L29,39.4
	c-3,3-7.8,3-10.7,0l-0.9,0.9C20.8,43.8,26.4,43.8,29.9,40.3z M28.3,38.8l-0.9-0.9c-2.1,2.1-5.5,2.1-7.6,0l-0.9,0.9
	C21.5,41.3,25.7,41.3,28.3,38.8z M26.7,37.1l-0.9-0.9c-1.2,1.2-3.2,1.2-4.4,0l-0.9,0.9C22.2,38.8,25,38.8,26.7,37.1z M40.7,16.9
	l-0.9,0.9c3,3,3,7.8,0,10.7l0.9,0.9C44.2,26,44.2,20.3,40.7,16.9z M39.2,18.5l-0.9,0.9c2.1,2.1,2.1,5.5,0,7.6l0.9,0.9
	C41.8,25.3,41.8,21.1,39.2,18.5z M37.5,20.1L36.6,21c1.2,1.2,1.2,3.2,0,4.4l0.9,0.9C39.3,24.6,39.3,21.8,37.5,20.1z M6.4,29.4
	l0.9-0.9c-3-3-3-7.8,0-10.7l-0.9-0.9C3,20.3,3,26,6.4,29.4z M8,27.9L8.9,27c-2.1-2.1-2.1-5.5,0-7.6L8,18.5C5.4,21.1,5.4,25.3,8,27.9
	z M9.6,26.3l0.9-0.9c-1.2-1.2-1.2-3.2,0-4.4l-0.9-0.9C7.9,21.8,7.9,24.6,9.6,26.3z"/>
<path class="st1" d="M26.4,27.2c-0.9,0.1-1.9,0.1-2.8,0.1c-0.9,0-1.9-0.1-2.8-0.1c0.5,3.2,1.7,5.3,2.8,5.3l0,0
	C24.7,32.5,25.8,30.5,26.4,27.2z"/>
<path class="st1" d="M26.5,26.1c0.1-0.9,0.2-1.9,0.2-2.9c0-1-0.1-2-0.2-2.9c-0.9-0.1-1.9-0.2-2.9-0.2c-1,0-2,0.1-2.9,0.2
	c-0.1,0.9-0.2,1.9-0.2,2.9c0,1,0.1,2,0.2,2.9c0.9,0.1,1.9,0.2,2.9,0.2C24.6,26.3,25.6,26.2,26.5,26.1z"/>
<path class="st1" d="M14.2,23.2c0,1.1,2,2.2,5.3,2.8c-0.1-0.9-0.1-1.9-0.1-2.8c0-0.9,0.1-1.9,0.1-2.8C16.3,20.9,14.2,22.1,14.2,23.2
	L14.2,23.2z"/>
<path class="st1" d="M20.8,19.1c0.9-0.1,1.9-0.1,2.8-0.1c0.9,0,1.9,0.1,2.8,0.1c-0.5-3.2-1.7-5.3-2.8-5.3l0,0
	C22.5,13.8,21.4,15.9,20.8,19.1z"/>
<path class="st1" d="M27.8,23.2c0,0.9,0,1.9-0.1,2.8c3.2-0.5,5.3-1.7,5.3-2.8c0,0,0,0,0,0c0,0,0,0,0,0c0-1.1-2-2.2-5.3-2.8
	C27.7,21.3,27.8,22.2,27.8,23.2z"/>
<path class="st1" d="M25.7,14.1c0.8,1.2,1.4,3.1,1.8,5.2c2.1,0.3,4,0.9,5.2,1.8C31.9,17.6,29.2,14.9,25.7,14.1z"/>
<path class="st1" d="M14.5,21c1.2-0.8,3.1-1.4,5.2-1.8c0.3-2.1,0.9-4,1.8-5.2C18,14.9,15.3,17.6,14.5,21z"/>
<path class="st1" d="M21.4,32.3c-0.8-1.2-1.4-3.1-1.8-5.2c-2.1-0.3-4-0.9-5.2-1.8C15.3,28.7,18,31.4,21.4,32.3z"/>
<path class="st1" d="M32.7,25.3c-1.2,0.8-3.1,1.4-5.2,1.8c-0.3,2.1-0.9,4-1.8,5.2C29.2,31.4,31.9,28.7,32.7,25.3z"/>
</svg>
