<?xml version="1.0" encoding="utf-8"?>
<!-- Generator: Adobe Illustrator 15.0.0, SVG Export Plug-In . SVG Version: 6.00 Build 0)  -->
<!DOCTYPE svg PUBLIC "-//W3C//DTD SVG 1.1//EN" "http://www.w3.org/Graphics/SVG/1.1/DTD/svg11.dtd">
<svg version="1.1" id="Layer_3" xmlns="http://www.w3.org/2000/svg" xmlns:xlink="http://www.w3.org/1999/xlink" x="0px" y="0px"
	 width="33.833px" height="33.25px" viewBox="-4.833 -4.25 33.833 33.25" enable-background="new -4.833 -4.25 33.833 33.25"
	 xml:space="preserve">
<path fill="#FFFFFF" d="M19.005,7.033H6.935c-1.01,0-1.01,1.568,0,1.568h12.07C20.016,8.601,20.016,7.033,19.005,7.033"/>
<path fill="#FFFFFF" d="M19.005,10.742H6.935c-1.01,0-1.01,1.568,0,1.568h12.07C20.016,12.311,20.016,10.742,19.005,10.742"/>
<path fill="#FFFFFF" d="M19.005,14.429H6.935c-1.01,0-1.01,1.566,0,1.566h12.07C20.016,15.995,20.016,14.429,19.005,14.429"/>
<path fill="#FFFFFF" d="M19.005,18.138H6.935c-1.01,0-1.01,1.568,0,1.568h12.07C20.016,19.706,20.016,18.138,19.005,18.138"/>
<path fill="#FFFFFF" d="M19.805-1.751H2.091V26.5h21.755V2.167L19.805-1.751z M21.966,24.617H3.97V0.129h14.863v2.984h3.133V24.617z
	"/>
</svg>
