<?xml version="1.0" encoding="utf-8"?>
<!-- Generator: Adobe Illustrator 21.1.0, SVG Export Plug-In . SVG Version: 6.00 Build 0)  -->
<svg version="1.1" id="Layer_1" xmlns="http://www.w3.org/2000/svg" xmlns:xlink="http://www.w3.org/1999/xlink" x="0px" y="0px"
	 viewBox="0 0 910 239" style="enable-background:new 0 0 910 239;" xml:space="preserve">
<style type="text/css">
	.st0{fill:#848689;}
</style>
<g>
	<path class="st0" d="M892.4,100C902.8,90,908,75.8,908,57.2c0-17.4-4.9-31.1-15.1-40.7C883.1,6.6,869.1,1.8,851,1.8h-35v113.1h31.7
		C867.2,114.9,881.9,109.8,892.4,100z M834.6,17.3h16.1c25.2,0,37.9,13.5,37.9,40.6c0,27.6-13.6,41.4-40.8,41.4h-13.2V17.3z"/>
	<path class="st0" d="M246.2,69.8h18.5l26.9,45.2h20.8l-31.8-50.1c14.6-6.1,22-16.1,22-30.1c0-11-3.4-19.2-10.5-24.7
		c-7-5.5-17.8-8.3-32.5-8.3h-31.8v113h18.4V69.8z M246.2,17.3h12.2c8.3,0,14.6,1.4,18.8,4.2c4.2,2.9,6.2,7.5,6.2,13.9
		c0,6.2-1.9,11-5.8,14.2c-3.7,3.1-10,4.8-18.6,4.8h-12.8V17.3z"/>
	<path class="st0" d="M268.5,188.7c-1.4-2.8-3.6-4.8-6.5-6.5c-2.8-1.6-6.1-2.4-10-2.4c-3.7,0-7.1,0.7-10,2.4c-2.8,1.7-5.1,4-6.8,7.1
		c-1.6,3.1-2.4,6.7-2.4,10.8s0.7,7.6,2.4,10.7c1.6,2.9,3.9,5.2,6.8,6.9c2.8,1.6,6.3,2.4,10,2.4c3.3,0,6.3-0.6,8.9-1.8
		c2.7-1.1,4.7-2.9,6.4-5c1.7-2.1,2.8-4.5,3.2-7.3h-6.9c-0.5,2.7-1.8,4.7-3.9,6.4c-2.1,1.6-4.7,2.4-7.9,2.4c-3.4,0-6.4-1.2-8.8-3.4
		c-2.5-2.3-3.8-5.6-3.9-10.1h31.4v0c0.3-1,0.3-2.2,0.2-3.6C270.7,194.4,270,191.5,268.5,188.7z M264.1,198.2H239
		c0.3-4.3,1.6-7.6,4-9.8c2.4-2.2,5.5-3.3,9-3.3c2.3,0,4.4,0.4,6.3,1.4c1.9,1,3.4,2.4,4.5,4.4C263.9,192.8,264.4,195.3,264.1,198.2z"
		/>
	<path class="st0" d="M198.8,179.5c-3.3,0-6.3,0.7-8.8,2.5s-4.3,4.2-5.3,7.4v-9.3h-6.5v39.3h6.5v-20.8c0-4.4,1-7.8,3.2-10.1
		s5.1-3.5,8.6-3.5s6.2,1.1,8.2,3.2c2,2.1,3,5,3,9v22.3h6.5v-22.8c0-5.5-1.3-9.7-4.2-12.7C207.3,181.2,203.5,179.6,198.8,179.5z"/>
	<path class="st0" d="M300.8,187.1c1.9-0.9,4-1.5,6.3-1.5c3.2,0,5.8,0.7,7.9,2.4c2.1,1.5,3.5,3.7,3.9,6.6h6.8
		c-0.8-4.5-2.8-8.2-6.1-10.8v0c-3.3-2.6-7.4-4-12.5-4.1c-3.7,0-7.2,0.7-10,2.4s-5.1,4-6.8,7.1c-1.6,3.1-2.4,6.7-2.4,10.8
		c0,4.1,0.7,7.6,2.4,10.7c1.6,2.9,4,5.3,6.8,6.9c2.8,1.6,6.3,2.4,10,2.4c5,0,9.2-1.4,12.5-4c3.3-2.6,5.3-6.3,6.1-10.8h-6.8
		c-0.5,2.7-1.8,4.9-3.9,6.6c-2.1,1.6-4.7,2.4-7.9,2.4c-2.3,0-4.4-0.4-6.3-1.5c-1.9-1.1-3.4-2.6-4.5-4.8c-1.2-2.2-1.8-4.8-1.8-8
		c0-3.2,0.7-5.8,1.8-8C297.4,189.7,298.9,188.2,300.8,187.1z"/>
	<path class="st0" d="M354,212.4c-1-0.9-1.4-2.7-1.4-5.2v-21.4h10.1v-5.6h-10.1v-9.8H346v9.8h-5.8v5.6h5.8v21.3c0,4.5,1,7.7,3,9.6
		c1.9,1.9,5,2.9,9,2.9h4.9v-5.7v-0.1h-4.1C356.5,213.8,354.9,213.3,354,212.4z"/>
	<path class="st0" d="M21.9,187.1c1.9-0.9,4-1.5,6.3-1.5c3.2,0,5.8,0.7,7.9,2.4c2.1,1.5,3.5,3.7,3.9,6.6h6.8
		c-0.8-4.5-2.8-8.2-6.1-10.8c-3.3-2.6-7.5-4-12.5-4.1c-3.7,0-7.2,0.7-10,2.4s-5.1,4-6.8,7.1C9.8,192.3,9,195.9,9,200
		c0,4.1,0.7,7.6,2.4,10.7c1.6,2.9,4,5.3,6.8,6.9c2.8,1.6,6.3,2.4,10,2.4c5,0,9.2-1.4,12.5-4c3.3-2.6,5.3-6.3,6.1-10.8H40
		c-0.5,2.7-1.8,4.9-3.9,6.6c-2.1,1.6-4.7,2.4-7.9,2.4c-2.3,0-4.4-0.4-6.3-1.5c-1.9-1.1-3.4-2.6-4.5-4.8c-1.2-2.2-1.8-4.8-1.8-8
		c0-3.2,0.7-5.8,1.8-8C18.5,189.7,20,188.2,21.9,187.1z"/>
	<path class="st0" d="M142.3,179.5c-3.3,0-6.3,0.7-8.8,2.5s-4.3,4.2-5.3,7.4v-9.3h-6.5v39.3h6.5v-20.8c0-4.4,1-7.8,3.2-10.1
		s5.1-3.5,8.6-3.5s6.2,1.1,8.2,3.2c2,2.1,3,5,3,9v22.3h6.5v-22.8c0-5.5-1.3-9.7-4.2-12.7C150.6,181.2,147,179.6,142.3,179.5z"/>
	<rect x="331.5" y="50.2" class="st0" width="60.9" height="14.4"/>
	<rect x="421.9" y="50.2" class="st0" width="60.9" height="14.4"/>
	<rect x="421.9" y="2.3" class="st0" width="64" height="14.4"/>
	<path class="st0" d="M93.3,182.3c-2.9-1.7-6.4-2.5-10.1-2.4c-3.7,0-7.1,0.7-10.1,2.4s-5.4,4-7.1,7.1c-1.6,3.1-2.5,6.7-2.5,10.8
		s0.7,7.6,2.5,10.7c1.8,2.9,4.1,5.2,7.1,6.9c2.9,1.6,6.4,2.4,10.1,2.4s7.1-0.7,10.1-2.4c3-1.5,5.4-3.8,7.1-6.9
		c1.6-3,2.5-6.5,2.5-10.7s-0.8-7.7-2.5-10.8C98.6,186.3,96.3,184,93.3,182.3z M94.5,207.8c-1.3,2.2-2.8,3.7-4.8,4.8
		c-2,0.9-4.2,1.5-6.5,1.5s-4.5-0.4-6.5-1.5c-1.9-1.1-3.6-2.6-4.8-4.8c-1.2-2.1-1.9-4.7-1.9-7.9c0-3.2,0.6-5.8,1.9-8
		c1.3-2.2,2.8-3.7,4.8-4.8c2-1.1,4.2-1.5,6.5-1.5s4.5,0.4,6.5,1.5c1.9,1.1,3.6,2.6,4.8,4.8c1.2,2.2,1.9,4.8,1.9,8
		C96.4,203,95.7,205.6,94.5,207.8z"/>
	<path class="st0" d="M646.5,0c-17.1,0-30.1,5.1-39.3,15.1c-9.3,9.8-13.9,24.3-13.9,42.9s4.4,32.9,13.7,43.1
		c9.2,10.1,22.2,15.2,39.3,15.2c16.8,0,29.8-5,39.1-15.2c9.3-10.2,13.9-24.5,13.9-42.9h0c0-18.4-4.6-32.9-13.9-43
		C676.4,5.1,663.4,0,646.5,0z M671.4,90.1c-5.6,7-13.8,10.6-24.9,10.6s-19.5-3.5-25.1-10.8c-5.6-7.2-8.4-17.8-8.4-31.7h0
		c0-13.8,2.9-24.5,8.5-31.4c5.6-7.2,14.1-10.8,25.1-10.8s19.3,3.5,24.9,10.8c5.5,7,8.3,17.6,8.3,31.5C679.8,72.5,677,83,671.4,90.1z
		"/>
	<polygon class="st0" points="793.3,99.1 745.4,99.1 745.4,1.8 727,1.8 727,114.8 727,114.9 793.3,114.9 	"/>
	<polygon class="st0" points="511.3,114.8 529.6,114.8 529.6,68.3 572.4,68.3 572.4,52.7 529.6,52.7 529.6,17.4 575.1,17.4 
		575.1,1.8 511.3,1.8 	"/>
	<path class="st0" d="M681.8,197.7c0-3.3-0.7-6.2-2.2-9s-3.7-4.9-6.5-6.5s-6.1-2.4-10-2.4c-3.7,0-7.2,0.7-10,2.4s-5.1,4-6.8,7.1
		c-1.6,3.1-2.4,6.7-2.4,10.8s0.7,7.6,2.4,10.7c1.6,2.9,3.9,5.2,6.8,6.9c2.8,1.6,6.3,2.4,10,2.4c3.3,0,6.3-0.6,8.9-1.8
		c2.7-1.1,4.7-2.8,6.4-5c1.7-2.1,2.8-4.5,3.2-7.3h-6.9c-0.5,2.7-1.8,4.7-3.9,6.4c-2.1,1.6-4.7,2.4-7.9,2.4c-3.4,0-6.4-1.2-8.8-3.4
		c-2.5-2.3-3.8-5.6-3.9-10.1h31.4v0C681.7,200.3,681.8,199.1,681.8,197.7z M675,198.2h-25.1c0.3-4.3,1.6-7.6,4-9.8
		c2.4-2.2,5.5-3.3,9-3.3c2.3,0,4.4,0.4,6.3,1.4s3.4,2.4,4.5,4.4h0C674.8,192.8,675.4,195.3,675,198.2z"/>
	<path class="st0" d="M609.9,179.5c-3.3,0-6.3,0.7-8.8,2.5s-4.3,4.2-5.3,7.4v-23h-6.5v53h6.5v-20.8c0-4.4,1-7.8,3.2-10.1
		c2.2-2.3,5.1-3.5,8.6-3.5s6.2,1.1,8.2,3.2c2,2.1,3,5,3,9v22.3h6.5v-22.8c0-5.5-1.3-9.7-4.2-12.7
		C618.3,181.2,614.6,179.6,609.9,179.5z"/>
	<path class="st0" d="M762.2,190.4c-1-3.2-2.9-5.8-5.5-7.7c-2.6-2-5.8-2.9-9.7-2.7c-3.6,0-6.6,0.7-9.4,2.4s-4.9,4-6.4,7.1
		c-1.5,3.1-2.3,6.7-2.3,10.8s0.8,7.6,2.3,10.7c1.6,2.9,3.6,5.2,6.4,6.9c2.8,1.6,5.9,2.4,9.4,2.4c3.9,0,7.1-1,9.7-2.9
		c2.6-2,4.4-4.5,5.5-7.7v10h6.5v-53h-6.5V190.4z M760.5,207.6c-1.1,2.2-2.7,3.9-4.7,5.1c-2.1,1.2-4.4,1.8-6.9,1.8
		c-4,0-7.2-1.4-9.6-3.9c-2.4-2.6-3.6-6.1-3.6-10.6s1.2-8.1,3.6-10.6c2.4-2.5,5.6-3.8,9.6-3.9c2.6,0,4.9,0.6,6.9,1.8
		c1.9,1.2,3.6,2.9,4.7,5.1c1.2,2.2,1.8,4.7,1.8,7.6C762.3,202.9,761.6,205.4,760.5,207.6z"/>
	<path class="st0" d="M908.1,203.3c-1.3-1.5-2.8-2.6-4.6-3.3c-1.8-0.8-4.2-1.4-7.1-2.1c-2.3-0.4-4.1-1-5.4-1.4
		c-1.3-0.5-2.4-1.1-3.3-2c-0.9-0.9-1.3-2.1-1.3-3.5c0-1.9,0.7-3.4,2-4.5s3.2-1.7,5.5-1.7c2.7,0,4.9,0.8,6.6,2.2
		c1.7,1.4,2.6,3.4,2.9,5.7h6.3c-0.7-4-2.4-7.1-5-9.4h0c-2.7-2.4-6.3-3.5-10.6-3.5c-4.2,0-7.5,1.1-9.9,3.1c-2.4,2-3.6,4.6-3.6,7.9
		c0,2.6,0.7,4.6,1.9,6c1.2,1.4,2.6,2.5,4.4,3.2c1.6,0.7,4,1.3,6.9,2c2.3,0.5,4.2,1.1,5.5,1.5c1.4,0.4,2.5,1.2,3.4,2.1
		c0.9,0.8,1.3,2.1,1.3,3.6c0,1.9-0.7,3.4-1.9,4.5c-1.3,1.2-3.1,1.8-5.3,1.8c-3,0-5.4-0.8-7.3-2.2c-1.8-1.5-2.9-3.4-3.1-5.8h-6.3
		c0.5,4,2.2,7.2,5.2,9.4c3,2.3,6.9,3.4,11.5,3.4c4,0,7.2-1,9.6-3c2.4-2,3.6-4.6,3.6-7.8C910,206.8,909.3,204.8,908.1,203.3z"/>
	<path class="st0" d="M859.6,213.8c-2.3,0-3.9-0.5-4.8-1.4c-1-0.9-1.4-2.7-1.4-5.2v-21.4h10.1v-5.6h-10.1v-9.8h-6.6v9.8H841v5.6h5.9
		v21.3c0,4.5,1,7.7,3,9.6c1.9,1.9,5,2.9,9,2.9h4.8v-5.7l0-0.1H859.6z"/>
	<path class="st0" d="M817.5,182.3c-2.9-1.7-6.3-2.5-10.1-2.4c-3.7,0-7.1,0.7-10.1,2.4s-5.3,4-7.1,7.1c-1.6,3.1-2.5,6.7-2.5,10.8
		s0.7,7.6,2.5,10.7c1.8,2.9,4.1,5.2,7.1,6.9c2.9,1.6,6.4,2.4,10.1,2.4c3.7,0,7.1-0.7,10.1-2.4c3-1.5,5.4-3.8,7.1-6.9
		c1.6-3,2.5-6.5,2.5-10.7s-0.7-7.7-2.5-10.8C822.8,186.3,820.5,184,817.5,182.3z M818.7,207.8c-1.3,2.2-2.8,3.7-4.8,4.8
		c-2,0.9-4.2,1.5-6.5,1.5s-4.5-0.4-6.5-1.5c-1.9-1.1-3.6-2.6-4.8-4.8c-1.2-2.1-1.9-4.7-1.9-7.9c0-3.2,0.7-5.8,1.9-8
		c1.3-2.2,2.8-3.7,4.8-4.8c2-1.1,4.2-1.5,6.5-1.5s4.5,0.4,6.5,1.5c1.9,1.1,3.6,2.6,4.8,4.8c1.2,2.2,1.9,4.8,1.9,8
		C820.6,203,819.9,205.6,818.7,207.8z"/>
	<path class="st0" d="M383.6,164.7c-1.3,0-2.4,0.3-3.2,1.1c-0.9,0.8-1.2,1.8-1.2,2.9c0,1.2,0.4,2.1,1.2,2.9s1.9,1.1,3.2,1.1
		s2.4-0.3,3.2-1.1c0.8-0.7,1.2-1.7,1.2-2.9c0-1.2-0.4-2.1-1.2-2.9C386,165,384.9,164.7,383.6,164.7z"/>
	<path class="st0" d="M495.5,190.4c-1-3.2-2.9-5.8-5.5-7.7c-2.7-2-5.9-2.9-9.8-2.9c-3.6,0-6.6,0.7-9.4,2.4s-4.9,4-6.4,7.1
		c-1.5,3.1-2.3,6.7-2.3,10.8c0,4.1,0.8,7.6,2.3,10.7c1.6,2.9,3.6,5.2,6.4,6.9c2.8,1.6,5.9,2.4,9.4,2.4c3.9,0,7.1-1,9.7-2.9
		c2.6-2,4.4-4.5,5.5-7.7v10.7c0,4.1-1.2,7.2-3.5,9.5s-5.3,3.4-8.8,3.4c-3.4,0-6.1-0.7-8.2-2.2s-3.5-3.6-4.3-6.2h-6.4
		c0.9,4.3,3.1,7.9,6.4,10.4c3.4,2.6,7.7,3.9,13,3.9c3.7,0,6.9-0.8,9.7-2.3c2.8-1.6,4.9-3.7,6.4-6.6c1.5-2.9,2.3-6.1,2.3-9.7v-40
		h-6.5V190.4z M493.7,207.6c-1.1,2.2-2.7,3.9-4.7,5.1c-2.1,1.2-4.4,1.8-6.9,1.8c-4,0-7.2-1.4-9.6-3.9c-2.4-2.6-3.6-6.1-3.6-10.6
		s1.2-8.1,3.6-10.6v0c2.4-2.5,5.6-3.8,9.6-3.9c2.6,0,4.9,0.6,6.9,1.8c1.9,1.2,3.6,2.9,4.7,5.1c1.2,2.2,1.8,4.7,1.8,7.6
		S494.8,205.4,493.7,207.6z"/>
	<rect x="331.5" y="2.3" class="st0" width="64" height="14.4"/>
	<path class="st0" d="M563,212.4c-1-0.9-1.4-2.7-1.4-5.2v-21.4h10.1v-5.6h-10.1v-9.8H555v9.8h-5.8v5.6h5.8v21.3c0,4.5,1,7.7,3,9.6
		c1.9,1.9,5,2.9,9,2.9h4.8v-5.7v-0.1h-4C565.5,213.8,563.9,213.3,563,212.4z"/>
	<path class="st0" d="M428.3,179.5c-3.3,0-6.3,0.7-8.8,2.5s-4.3,4.2-5.3,7.4v-9.3h-6.5v39.3h6.5v-20.8c0-4.4,1-7.8,3.2-10.1
		s5.1-3.5,8.6-3.5s6.2,1.1,8.2,3.2c2,2.1,3,5,3,9v22.3h6.5v-22.8c0-5.5-1.3-9.7-4.2-12.7C436.7,181.2,433,179.6,428.3,179.5z"/>
	<rect x="380.3" y="180.3" class="st0" width="6.5" height="39.3"/>
	<rect x="331.5" y="101.2" class="st0" width="64" height="14.4"/>
	<polygon class="st0" points="85.1,1.7 0,1.7 0,17.5 33.3,17.5 33.3,114.8 51.7,114.8 51.7,17.5 85.1,17.5 	"/>
	<polygon class="st0" points="194.6,114.8 194.6,1.8 176,1.8 176,48 123.9,48 123.9,1.8 105.5,1.8 105.5,114.8 124,114.8 124,63.9 
		176.1,63.9 176.1,114.8 	"/>
	<rect x="421.9" y="101.2" class="st0" width="64" height="14.4"/>
</g>
</svg>
