<?xml version="1.0" encoding="utf-8"?>
<!-- Generator: Adobe Illustrator 15.0.0, SVG Export Plug-In . SVG Version: 6.00 Build 0)  -->
<!DOCTYPE svg PUBLIC "-//W3C//DTD SVG 1.1//EN" "http://www.w3.org/Graphics/SVG/1.1/DTD/svg11.dtd">
<svg version="1.1" xmlns="http://www.w3.org/2000/svg" xmlns:xlink="http://www.w3.org/1999/xlink" x="0px" y="0px"
	 width="689.102px" height="170.779px" viewBox="0 0 689.102 170.779" enable-background="new 0 0 689.102 170.779"
	 xml:space="preserve">
<g id="Layer_2_1_" display="none">
	
		<text transform="matrix(1 0 0 1 168.0366 158.6765)" display="inline" fill="#848689" font-family="'Barlow-Bold'" font-size="202.8909">404</text>
</g>
<g id="Layer_2_copy">
	<g>
		<path fill="#848689" d="M281.252,100.242v18.464c0,2.232-1.217,3.449-3.449,3.449h-7.304c-0.812,0-1.217,0.406-1.217,1.218v31.854
			c0,2.231-1.217,3.449-3.449,3.449h-21.71c-2.232,0-3.449-1.218-3.449-3.449v-31.854c0-0.812-0.406-1.218-1.217-1.218h-61.274
			c-2.232,0-3.449-1.217-3.449-3.449v-14.608c0-1.623,0.203-2.638,0.812-4.261l36.115-80.55c0.812-1.623,2.232-2.638,4.058-2.638
			h23.13c2.638,0,3.652,1.826,2.638,4.058L208.21,95.373c-0.406,1.015,0.203,1.42,1.015,1.42h30.231
			c0.812,0,1.217-0.405,1.217-1.217V71.634c0-2.232,1.217-3.449,3.449-3.449h21.71c2.232,0,3.449,1.217,3.449,3.449v23.942
			c0,0.608,0.406,1.217,1.217,1.217h7.304C280.035,96.793,281.252,98.01,281.252,100.242z"/>
		<path fill="#848689" d="M300.118,114.445V60.881c0-28.203,18.464-45.854,48.289-45.854c29.826,0,48.492,17.652,48.492,45.854
			v53.564c0,28.608-18.666,46.463-48.492,46.463C318.582,160.908,300.118,143.053,300.118,114.445z M368.29,115.865V60.069
			c0-12.58-7.71-20.493-19.884-20.493c-11.97,0-19.68,7.913-19.68,20.493v55.796c0,12.58,7.71,20.493,19.68,20.493
			C360.58,136.358,368.29,128.445,368.29,115.865z"/>
		<path fill="#848689" d="M519.646,100.242v18.464c0,2.232-1.217,3.449-3.449,3.449h-7.304c-0.812,0-1.218,0.406-1.218,1.218v31.854
			c0,2.231-1.218,3.449-3.449,3.449h-21.71c-2.231,0-3.449-1.218-3.449-3.449v-31.854c0-0.812-0.405-1.218-1.217-1.218h-61.275
			c-2.231,0-3.449-1.217-3.449-3.449v-14.608c0-1.623,0.203-2.638,0.812-4.261l36.116-80.55c0.812-1.623,2.231-2.638,4.058-2.638
			h23.13c2.638,0,3.652,1.826,2.638,4.058l-33.274,74.666c-0.406,1.015,0.202,1.42,1.014,1.42h30.232
			c0.812,0,1.217-0.405,1.217-1.217V71.634c0-2.232,1.218-3.449,3.449-3.449h21.71c2.231,0,3.449,1.217,3.449,3.449v23.942
			c0,0.608,0.406,1.217,1.218,1.217h7.304C518.43,96.793,519.646,98.01,519.646,100.242z"/>
	</g>
</g>
</svg>
