<?xml version="1.0" encoding="utf-8"?>
<!-- Generator: Adobe Illustrator 15.0.0, SVG Export Plug-In . SVG Version: 6.00 Build 0)  -->
<!DOCTYPE svg PUBLIC "-//W3C//DTD SVG 1.1//EN" "http://www.w3.org/Graphics/SVG/1.1/DTD/svg11.dtd">
<svg version="1.1" id="Layer_2" xmlns="http://www.w3.org/2000/svg" xmlns:xlink="http://www.w3.org/1999/xlink" x="0px" y="0px"
	 width="40px" height="40px" viewBox="0 0 40 40" enable-background="new 0 0 40 40" xml:space="preserve">
<g>
	<path fill="none" d="M36.827,7.391L36.827,7.391C36.313,4.256,28.978,1.771,20,1.771S3.687,4.256,3.173,7.391l0,0H3.142v0.352
		v8.078v0.351v0.352v7.727v0.352v0.352v8.429h0.032C3.687,36.515,11.023,39,20,39c8.978,0,16.313-2.485,16.827-5.619h0.031v-8.429
		v-0.352v-0.352v-7.727v-0.352V15.82V7.742V7.391H36.827z"/>
	<g>
		<path fill="none" stroke="#5489DD" stroke-miterlimit="10" d="M20,30.571c-9.311,0-16.858-2.674-16.858-5.971v8.78h0.032
			C3.687,36.515,11.023,39,20,39c8.978,0,16.313-2.485,16.827-5.619h0.031v-8.78C36.858,27.897,29.311,30.571,20,30.571z"/>
		<path fill="none" stroke="#5489DD" stroke-miterlimit="10" d="M3.142,24.249v0.352c0-0.118,0.013-0.234,0.032-0.352H3.142z"/>
		<path fill="none" stroke="#5489DD" stroke-miterlimit="10" d="M36.827,24.249c0.019,0.117,0.031,0.233,0.031,0.352v-0.352H36.827z
			"/>
	</g>
	<g>
		<path fill="none" stroke="#6699FF" stroke-miterlimit="10" d="M20,22.142c-9.311,0-16.858-2.673-16.858-5.971v8.781h0.032
			c0.513,3.133,7.85,5.619,16.827,5.619c8.978,0,16.313-2.486,16.827-5.619h0.031v-8.781C36.858,19.469,29.311,22.142,20,22.142z"/>
		<path fill="none" stroke="#6699FF" stroke-miterlimit="10" d="M3.142,15.82v0.351c0-0.118,0.013-0.234,0.032-0.351H3.142z"/>
		<path fill="none" stroke="#6699FF" stroke-miterlimit="10" d="M36.827,15.82c0.019,0.117,0.031,0.233,0.031,0.351V15.82H36.827z"
			/>
	</g>
	<ellipse fill="none" stroke="#33FF99" stroke-miterlimit="10" cx="20" cy="7.742" rx="16.858" ry="5.971"/>
	<g>
		<path fill="none" stroke="#2CCE75" stroke-miterlimit="10" d="M20,13.713c-9.311,0-16.858-2.674-16.858-5.971v8.78h0.032
			c0.513,3.134,7.85,5.619,16.827,5.619c8.978,0,16.313-2.485,16.827-5.619h0.031v-8.78C36.858,11.039,29.311,13.713,20,13.713z"/>
		<path fill="none" stroke="#2CCE75" stroke-miterlimit="10" d="M3.142,7.391v0.352c0-0.118,0.013-0.235,0.032-0.352H3.142z"/>
		<path fill="none" stroke="#2CCE75" stroke-miterlimit="10" d="M36.827,7.391c0.019,0.117,0.031,0.233,0.031,0.352V7.391H36.827z"
			/>
	</g>
</g>
</svg>
