<?xml version="1.0" encoding="utf-8"?>
<!-- Generator: Adobe Illustrator 22.1.0, SVG Export Plug-In . SVG Version: 6.00 Build 0)  -->
<svg version="1.1" id="Capa_1" xmlns="http://www.w3.org/2000/svg" xmlns:xlink="http://www.w3.org/1999/xlink" x="0px" y="0px"
	 viewBox="0 0 46.3 46.3" style="enable-background:new 0 0 46.3 46.3;" xml:space="preserve">
<style type="text/css">
	.st0{fill:#6699FF;}
	.st1{fill:#34FF9B;}
</style>
<g id="ic-08-f-grid">
	<path id="Fill-1" class="st0" d="M29.4,41.2c-0.1,0-0.2,0.1-0.3,0.1c-0.2,0.1-0.5,0.1-0.7,0.2c-0.3,0.1-0.7,0.2-1,0.3
		c-0.2,0-0.4,0.1-0.6,0.1c0.2-0.3,0.3-0.6,0.5-1.1c0,0,0,0,0.1,0c0.1,0,0.1,0,0.2,0c0.1,0,0.1,0,0.2,0c0.1,0,0.1,0,0.2,0
		c0.1,0,0.1,0,0.2,0c0.1,0,0.1,0,0.2,0c0.1,0,0.1,0,0.2,0c0.1,0,0.1,0,0.2,0c0.1,0,0.2,0,0.2,0c0,0,0.1,0,0.1,0c0.1,0,0.2,0,0.4,0
		c0.1,0,0.3,0,0.4,0C29.7,41.1,29.5,41.2,29.4,41.2z M23.8,42.2c-1,0-2,0-2.7-0.1c0.4-0.3,0.7-0.6,1.1-1.2c0.3,0,0.6,0,0.9,0
		c0.3,0,0.6,0,0.8,0c0.3,0.5,0.6,0.9,0.9,1.2C24.4,42.2,24,42.2,23.8,42.2z M16.5,41.1c-0.1,0-0.3-0.1-0.4-0.2c0.3,0,0.5,0,0.8,0
		c0,0,0,0,0,0c0,0,0,0,0,0c0.1,0,0.2,0,0.3,0c0,0,0.1,0,0.1,0c0.1,0,0.2,0,0.4,0c0,0,0,0,0,0c0.1,0,0.2,0,0.3,0c0,0,0.1,0,0.1,0
		c0.1,0,0.2,0,0.3,0c0,0,0,0,0,0c0.2,0.4,0.3,0.7,0.5,1c-0.1,0-0.3-0.1-0.4-0.1C18,41.6,17.5,41.4,16.5,41.1z M42.4,25.9
		C42.4,25.9,42.4,25.9,42.4,25.9C42.4,25.9,42.4,25.9,42.4,25.9L42.4,25.9z M23.7,39.4C23.7,39.4,23.7,39.4,23.7,39.4
		c0.1,0.1,0.2,0.1,0.2,0.1c0.1,0,0.1,0.1,0.2,0.1c0.1,0,0.1,0.1,0.2,0.1c0.1,0,0.1,0.1,0.2,0.1c0.1,0,0.1,0.1,0.2,0.1
		c0.1,0,0.1,0.1,0.2,0.1c0.1,0,0.1,0.1,0.2,0.1c0.1,0,0.1,0.1,0.2,0.1c0.1,0,0.1,0.1,0.2,0.1c0.1,0,0.1,0,0.2,0.1c0,0,0,0,0,0
		c-0.5,0-1,0.1-1.5,0.1C24.1,40.1,23.9,39.8,23.7,39.4z M23.2,39.4c0.2,0.4,0.3,0.7,0.5,1.1c-0.4,0-0.8,0-1.1,0
		C22.8,40.2,23,39.8,23.2,39.4z M20.4,40.4C20.4,40.4,20.4,40.4,20.4,40.4c0.1,0,0.1,0,0.1,0c0.1,0,0.2-0.1,0.3-0.1
		c0,0,0.1,0,0.1-0.1c0.1,0,0.2-0.1,0.2-0.1c0.1,0,0.1,0,0.2-0.1c0.1,0,0.2-0.1,0.2-0.1c0,0,0.1,0,0.1-0.1c0.1,0,0.2-0.1,0.3-0.1
		c0,0,0.1,0,0.1-0.1c0.1-0.1,0.3-0.1,0.4-0.2c0,0,0,0,0.1,0c0,0,0.1,0,0.1,0c-0.2,0.4-0.4,0.7-0.6,1C21.4,40.5,20.9,40.4,20.4,40.4z
		 M3.9,19.6C3.9,19.6,3.9,19.6,3.9,19.6C3.9,19.6,3.9,19.6,3.9,19.6C3.9,19.6,3.9,19.6,3.9,19.6z M40.2,28.9c0,0,0.1-0.1,0.1-0.1
		c0,0,0.1-0.1,0.1-0.1c0,0,0.1-0.1,0.1-0.1c0,0,0.1-0.1,0.1-0.1c0,0,0.1-0.1,0.1-0.1c0,0,0.1-0.1,0.1-0.1c0,0,0.1-0.1,0.1-0.1
		c0,0,0.1-0.1,0.1-0.1c0,0,0.1-0.1,0.1-0.1c0,0,0.1-0.1,0.1-0.1c0,0,0.1-0.1,0.1-0.1c0,0,0.1-0.1,0.1-0.1c0,0,0.1-0.1,0.1-0.1
		c0,0,0.1-0.1,0.1-0.1c0,0,0.1-0.1,0.1-0.1c0,0,0-0.1,0.1-0.1c-0.1,1.8-0.6,3.5-1.5,5c0.1-0.3,0.1-0.6,0.1-0.9
		C40.5,30.2,40.4,29.6,40.2,28.9z M37.6,35.3c-0.5,0.4-0.9,0.7-1.4,1.1c0,0,0-0.1,0-0.1c0-0.1,0-0.1,0.1-0.2c0-0.1,0-0.1,0.1-0.2
		c0-0.1,0-0.1,0.1-0.2c0-0.1,0-0.1,0.1-0.2c0-0.1,0-0.1,0.1-0.2c0-0.1,0-0.1,0-0.2c0-0.1,0-0.1,0-0.2c0-0.1,0-0.1,0-0.2
		c0-0.1,0-0.1,0-0.2c0-0.1,0-0.1,0-0.2c0-0.1,0-0.1,0-0.2c0-0.1,0-0.1,0-0.2c0-0.1,0-0.1,0-0.2c0-0.1,0-0.1,0-0.2c0-0.1,0-0.1,0-0.2
		c0-0.1,0-0.1,0-0.2c0-0.1,0-0.1,0-0.2c0-0.1,0-0.1,0-0.2c0-0.1,0-0.1,0-0.2c0-0.1,0-0.1,0-0.2c0-0.1,0-0.1,0-0.2c0-0.1,0-0.1,0-0.2
		c0-0.1,0-0.1,0-0.2c0.8-0.8,1.6-1.7,2.3-2.7c0,0,0,0,0,0c0,0,0.1-0.1,0.1-0.1c0,0,0.1-0.1,0.1-0.1c0,0,0.1-0.1,0.1-0.1c0,0,0,0,0,0
		c0.2,0.6,0.2,1.1,0.2,1.7c0,0.8-0.2,1.7-0.6,2.4C38.9,34.1,38.3,34.7,37.6,35.3z M27.6,39.4c2.7-0.1,5.1-0.7,7.3-1.8c0,0,0,0,0,0
		c0,0.1-0.1,0.1-0.1,0.2c-2.1,1.2-4.7,2-7.3,2.4C27.5,39.9,27.6,39.7,27.6,39.4z M10.9,37.3C10.8,37.3,10.8,37.2,10.9,37.3
		c-0.1-0.1-0.1-0.2-0.2-0.3c2.1,1.2,4.6,1.9,7.3,2.2c0.1,0.3,0.1,0.6,0.2,0.9c-2.6-0.5-5.1-1.3-7.1-2.5C11,37.5,10.9,37.4,10.9,37.3
		z M8.2,35.3c0.5,0.4,1,0.8,1.6,1.2c0,0,0,0,0,0c0,0.1,0,0.1,0.1,0.2c0,0,0,0.1,0.1,0.1c0,0,0,0.1,0.1,0.1
		C9.3,36.4,8.7,35.8,8.2,35.3C8.2,35.3,8.2,35.3,8.2,35.3z M6.4,30.8c0-0.5,0.1-1,0.2-1.5c0,0,0.1,0.1,0.1,0.1c0,0,0.1,0.1,0.1,0.1
		c0,0,0.1,0.1,0.1,0.1c0,0,0.1,0.1,0.1,0.1c0,0,0.1,0.1,0.1,0.1c0.1,0,0.1,0.1,0.2,0.1c0,0,0.1,0.1,0.1,0.1c0.1,0,0.1,0.1,0.2,0.1
		c0.1,0,0.1,0.1,0.2,0.1c0.1,0,0.1,0.1,0.2,0.1c0,0,0.1,0,0.1,0.1c0.2,0.2,0.3,0.4,0.5,0.6c0,0,0,0,0,0c0,0.1,0,0.1,0,0.2
		c0,0.1,0,0.1,0,0.2c0,0.1,0,0.1,0,0.2c0,0.1,0,0.1,0,0.2c0,0.1,0,0.1,0,0.2c0,0.1,0,0.1,0,0.2c0,0.1,0,0.1,0,0.2c0,0.1,0,0.1,0,0.2
		c0,0.1,0,0.1,0,0.2c0,0.1,0,0.1,0,0.2c0,0.1,0,0.1,0,0.2c0,0.1,0,0.1,0,0.2c0,0.1,0,0.1,0,0.2c0,0.1,0,0.1,0,0.2c0,0.1,0,0.1,0,0.2
		c0,0.1,0,0.1,0,0.2c0,0.1,0,0.1,0,0.2c0,0.1,0,0.1,0,0.2c0,0.1,0,0.1,0,0.2c0,0.1,0,0.1,0,0.2c0,0.1,0,0.1,0,0.2
		c0,0.1,0,0.1,0.1,0.2c0,0.1,0,0.1,0,0.1c0,0.1,0,0.1,0.1,0.2c0,0,0,0.1,0.1,0.1c0,0,0,0,0,0c-0.3-0.2-0.6-0.5-0.9-0.7
		c-0.7-0.6-1.2-1.2-1.8-1.9C6.5,32.3,6.4,31.6,6.4,30.8z M4.2,26.6C4.3,26.7,4.3,26.7,4.2,26.6c0.1,0.1,0.1,0.2,0.1,0.2
		c0,0,0.1,0.1,0.1,0.1c0,0,0.1,0.1,0.1,0.1c0,0,0.1,0.1,0.1,0.1c0,0,0.1,0.1,0.1,0.1c0,0,0.1,0.1,0.1,0.1c0,0,0.1,0.1,0.1,0.1
		c0,0,0.1,0.1,0.1,0.1c0,0,0.1,0.1,0.1,0.1c0,0,0.1,0.1,0.1,0.1c0,0,0.1,0.1,0.1,0.1c0,0,0.1,0.1,0.1,0.1c0,0,0.1,0.1,0.1,0.1
		c0,0,0.1,0.1,0.1,0.1c0,0,0.1,0.1,0.1,0.1c0,0,0.1,0.1,0.1,0.1c0,0,0.1,0.1,0.1,0.1c0,0,0.1,0.1,0.1,0.1c0,0,0,0,0,0
		c-0.2,0.6-0.3,1.2-0.3,1.8c0,0.3,0,0.7,0.1,1C5,30.3,4.4,28.5,4.2,26.6z M6.1,16.6c0,0-0.1,0.1-0.1,0.1c0,0-0.1,0.1-0.1,0.1
		c0,0-0.1,0.1-0.1,0.1c0,0-0.1,0.1-0.1,0.1c0,0-0.1,0.1-0.1,0.1c0,0-0.1,0.1-0.1,0.1c0,0-0.1,0.1-0.1,0.1c0,0-0.1,0.1-0.1,0.1
		c0,0-0.1,0.1-0.1,0.1c0,0-0.1,0.1-0.1,0.1c0,0-0.1,0.1-0.1,0.1c0,0-0.1,0.1-0.1,0.1c0,0-0.1,0.1-0.1,0.1c0,0-0.1,0.1-0.1,0.1
		c0,0-0.1,0.1-0.1,0.1c0,0,0,0.1-0.1,0.1c0.1-1.8,0.6-3.5,1.5-5c-0.1,0.3-0.1,0.6-0.1,0.9C5.8,15.3,5.9,15.9,6.1,16.6z M8.7,10.2
		c0.5-0.4,0.9-0.7,1.4-1.1c0,0,0,0.1,0,0.1c0,0.1,0,0.1-0.1,0.2c0,0.1,0,0.1-0.1,0.2c0,0.1,0,0.1-0.1,0.2c0,0.1,0,0.1-0.1,0.2
		c0,0.1,0,0.1-0.1,0.2c0,0.1,0,0.1,0,0.2c0,0.1,0,0.1,0,0.2c0,0.1,0,0.1,0,0.2c0,0.1,0,0.1,0,0.2c0,0.1,0,0.1,0,0.2
		c0,0.1,0,0.1,0,0.2c0,0.1,0,0.1,0,0.2c0,0.1,0,0.1,0,0.2c0,0.1,0,0.1,0,0.2c0,0.1,0,0.1,0,0.2c0,0.1,0,0.1,0,0.2c0,0.1,0,0.1,0,0.2
		c0,0.1,0,0.1,0,0.2c0,0.1,0,0.1,0,0.2c0,0.1,0,0.1,0,0.2c0,0.1,0,0.1,0,0.2c0,0.1,0,0.1,0,0.2c0,0.1,0,0.1,0,0.2
		c-0.8,0.8-1.6,1.7-2.3,2.7c0,0,0,0,0,0c0,0-0.1,0.1-0.1,0.1c0,0-0.1,0.1-0.1,0.1c0,0-0.1,0.1-0.1,0.1c0,0,0,0,0,0
		c-0.2-0.6-0.2-1.1-0.2-1.7c0-0.8,0.2-1.7,0.6-2.4C7.4,11.4,8,10.8,8.7,10.2z M24.1,4.5c-0.6,0-1.1,0-1.7,0C22,4,21.8,3.7,21.5,3.4
		c1.2-0.1,2.4-0.1,3.6,0C24.7,3.7,24.4,4,24.1,4.5z M29.2,4.5C29.2,4.5,29.2,4.5,29.2,4.5c-0.2,0-0.3,0-0.4,0c0,0-0.1,0-0.1,0
		c0,0,0,0,0,0c0,0,0,0,0,0c-0.1,0-0.1,0-0.2,0c0,0-0.1,0-0.1,0c0,0-0.1,0-0.1,0c-0.1,0-0.1,0-0.2,0c0,0,0,0-0.1,0c0,0-0.1,0-0.1,0
		c-0.1-0.3-0.2-0.5-0.4-0.7C28.1,4.1,28.7,4.3,29.2,4.5z M38.1,10.2c-0.5-0.4-1-0.8-1.6-1.2c0-0.1,0-0.1-0.1-0.2c0,0,0-0.1-0.1-0.1
		c0,0,0-0.1-0.1-0.1C37,9.1,37.6,9.7,38.1,10.2C38.1,10.2,38.1,10.2,38.1,10.2z M39.9,14.7c0,0.5-0.1,1-0.2,1.5c0,0-0.1-0.1-0.1-0.1
		c0,0-0.1-0.1-0.1-0.1c0,0-0.1-0.1-0.1-0.1c0,0-0.1-0.1-0.2-0.1c0,0-0.1-0.1-0.1-0.1c-0.1,0-0.1-0.1-0.2-0.1c0,0-0.1-0.1-0.1-0.1
		c-0.1,0-0.1-0.1-0.2-0.1c-0.1,0-0.1-0.1-0.2-0.1c-0.1,0-0.1-0.1-0.2-0.1c0,0-0.1,0-0.1-0.1c-0.2-0.2-0.3-0.4-0.5-0.6c0,0,0,0,0,0
		c0-0.1,0-0.1,0-0.2c0-0.1,0-0.1,0-0.2c0-0.1,0-0.1,0-0.2c0-0.1,0-0.1,0-0.2c0-0.1,0-0.1,0-0.2c0-0.1,0-0.1,0-0.2c0-0.1,0-0.1,0-0.2
		c0-0.1,0-0.1,0-0.2c0-0.1,0-0.1,0-0.2c0-0.1,0-0.1,0-0.2c0-0.1,0-0.1,0-0.2c0-0.1,0-0.1,0-0.2c0-0.1,0-0.1,0-0.2c0-0.1,0-0.1,0-0.2
		c0-0.1,0-0.1,0-0.2c0-0.1,0-0.1,0-0.2c0-0.1,0-0.1,0-0.2c0-0.1,0-0.1,0-0.2c0-0.1,0-0.1,0-0.2c0-0.1,0-0.1,0-0.2c0-0.1,0-0.1,0-0.2
		c0-0.1,0-0.1-0.1-0.2c0-0.1,0-0.1-0.1-0.1c0-0.1,0-0.1-0.1-0.2c0,0,0-0.1-0.1-0.1c0,0,0,0,0,0c0.3,0.2,0.6,0.5,0.9,0.7
		c0.7,0.6,1.2,1.2,1.8,1.9C39.8,13.2,39.9,13.9,39.9,14.7z M42.1,18.9C42,18.9,42,18.8,42.1,18.9c-0.1-0.1-0.1-0.2-0.1-0.2
		c0,0,0-0.1-0.1-0.1c0,0-0.1-0.1-0.1-0.1c0,0-0.1-0.1-0.1-0.1c0,0-0.1-0.1-0.1-0.1c0,0-0.1-0.1-0.1-0.1c0,0-0.1-0.1-0.1-0.1
		c0,0-0.1-0.1-0.1-0.1c0,0-0.1-0.1-0.1-0.1c0,0-0.1-0.1-0.1-0.1c0,0-0.1-0.1-0.1-0.1c0,0-0.1-0.1-0.1-0.1c0,0-0.1-0.1-0.1-0.1
		c0,0-0.1-0.1-0.1-0.1c0,0-0.1-0.1-0.1-0.1c0,0-0.1-0.1-0.1-0.1c0,0-0.1-0.1-0.1-0.1c0,0-0.1-0.1-0.1-0.1c0,0,0,0,0,0
		c0.2-0.6,0.3-1.2,0.3-1.8c0-0.3,0-0.7-0.1-1C41.3,15.2,41.9,17,42.1,18.9z M37.1,31.5c0-0.1,0-0.1,0-0.2c0,0,0-0.1,0-0.1l0,0v0
		c0,0,0.1,0,0.1-0.1c0.1,0,0.1-0.1,0.2-0.1c0.1,0,0.1-0.1,0.2-0.1c0.1,0,0.1-0.1,0.2-0.1c0.1,0,0.1-0.1,0.2-0.1c0,0,0,0,0,0
		C37.6,30.9,37.4,31.3,37.1,31.5C37.1,31.5,37.1,31.5,37.1,31.5z M27.3,38.2c0,0.3-0.1,0.5-0.1,0.7c-0.8,0-1.6,0-2.4-0.1
		C25.7,38.6,26.5,38.4,27.3,38.2z M18.2,37.7c1.1,0.4,2.2,0.8,3.3,1c-1.1,0.1-2.2,0.1-3.2,0C18.3,38.5,18.3,38.1,18.2,37.7z M9.2,14
		c0,0.1,0,0.1,0,0.2c0,0,0,0.1,0,0.1l0,0v0c0,0-0.1,0-0.1,0.1c-0.1,0-0.1,0.1-0.2,0.1c-0.1,0-0.1,0.1-0.2,0.1
		c-0.1,0-0.1,0.1-0.2,0.1c-0.1,0-0.1,0.1-0.2,0.1c0,0,0,0,0,0C8.7,14.6,8.9,14.2,9.2,14C9.2,14,9.2,14,9.2,14z M10.5,8.4
		c-0.3,0.2-0.6,0.3-0.9,0.5c0.3-0.2,0.6-0.4,0.9-0.6C10.6,8.3,10.5,8.3,10.5,8.4z M13.3,7.1c-0.7,0.2-1.4,0.5-2,0.8c0,0,0,0,0,0
		c0-0.1,0.1-0.1,0.1-0.2c0.6-0.4,1.3-0.7,2.1-1C13.5,6.9,13.4,7,13.3,7.1z M18.8,5.3c-0.1,0.3-0.1,0.5-0.2,0.8
		c-1.6,0.1-3.2,0.3-4.6,0.7c0.1-0.2,0.2-0.3,0.3-0.4C15.8,5.9,17.3,5.6,18.8,5.3z M16.9,4.9C16.9,4.9,16.9,4.9,16.9,4.9
		c0.2,0,0.2,0,0.3,0c0,0,0.1,0,0.1,0c0.1,0,0.2,0,0.2,0c0,0,0,0,0.1,0c0.1,0,0.3,0,0.4,0c-0.9,0.2-1.8,0.4-2.7,0.6
		c0.3-0.2,0.7-0.5,1-0.7C16.5,4.9,16.7,4.9,16.9,4.9z M19,4.7c-0.1,0-0.1,0-0.2,0c0,0-0.1,0-0.1,0c-0.1,0-0.1,0-0.2,0
		c0,0-0.1,0-0.1,0c-0.1,0-0.1,0-0.2,0c0,0-0.1,0-0.1,0c-0.1,0-0.2,0-0.2,0c0,0-0.1,0-0.1,0c-0.1,0-0.2,0-0.2,0c0,0-0.1,0-0.1,0
		c0,0-0.1,0-0.1,0c0.6-0.3,1.3-0.5,2.1-0.7C19.2,4,19.1,4.3,19,4.7z M22.6,6.1C22.5,6,22.5,6,22.6,6.1C22.4,6,22.4,6,22.3,5.9
		c-0.1,0-0.1-0.1-0.2-0.1c-0.1,0-0.1-0.1-0.2-0.1c-0.1,0-0.1-0.1-0.2-0.1c0,0-0.1,0-0.1-0.1c-0.1,0-0.1-0.1-0.2-0.1
		c0,0-0.1,0-0.1-0.1c-0.1,0-0.1-0.1-0.2-0.1c0,0-0.1,0-0.1-0.1c-0.1,0-0.1-0.1-0.2-0.1c0,0-0.1,0-0.1-0.1c0,0-0.1,0-0.1,0
		C21,5.1,21.5,5,22,5C22.2,5.4,22.4,5.7,22.6,6.1z M23.1,6.1c-0.2-0.4-0.3-0.7-0.5-1.1c0.4,0,0.8,0,1.1,0
		C23.5,5.3,23.3,5.7,23.1,6.1z M25.9,5.1C25.9,5.1,25.9,5.1,25.9,5.1c-0.1,0-0.1,0-0.2,0.1c-0.1,0-0.1,0-0.2,0.1c0,0-0.1,0-0.1,0
		c0,0-0.1,0-0.1,0.1c0,0-0.1,0-0.1,0c-0.1,0-0.1,0-0.2,0.1c0,0-0.1,0-0.1,0c0,0-0.1,0-0.1,0c-0.1,0-0.1,0-0.2,0.1
		c-0.1,0-0.1,0.1-0.2,0.1c0,0,0,0-0.1,0c0,0-0.1,0-0.1,0c0,0,0,0,0,0c-0.1,0-0.1,0.1-0.2,0.1c0,0-0.1,0-0.1,0.1c0,0-0.1,0-0.1,0.1
		c0,0-0.1,0-0.1,0.1c0,0-0.1,0-0.1,0c0.2-0.4,0.4-0.7,0.6-1C24.9,5,25.4,5.1,25.9,5.1C25.9,5.1,25.9,5.1,25.9,5.1z M28.8,5.1
		C28.8,5.1,28.8,5.1,28.8,5.1c0.1,0,0.1,0,0.2,0c0.1,0,0.1,0,0.2,0c0,0,0.1,0,0.1,0c0.1,0,0.1,0,0.2,0c0,0,0.1,0,0.1,0
		c0.1,0,0.1,0,0.2,0c0,0,0.1,0,0.1,0c0.1,0,0.1,0,0.2,0c0,0,0.1,0,0.1,0c0,0,0,0,0,0c0.3,0.2,0.5,0.3,0.7,0.5
		C30.3,5.4,29.5,5.2,28.8,5.1z M32.3,7.1c-1.3-0.4-2.6-0.7-4-0.8c-0.1-0.3-0.1-0.6-0.2-0.8c1.3,0.2,2.5,0.5,3.7,0.9
		C32,6.6,32.2,6.8,32.3,7.1z M36,24c0-0.1,0-0.1-0.1-0.2c0,0,0-0.1,0-0.1c0,0,0,0,0-0.1c0,0,0,0,0-0.1c0.1-0.2,0.2-0.5,0.3-0.7
		c0,0,0-0.1,0-0.1c0.1-0.2,0.2-0.5,0.2-0.7c0,0,0-0.1,0-0.1c0.1-0.2,0.1-0.5,0.2-0.7c0,0,0-0.1,0-0.1c0-0.1,0-0.2,0.1-0.3
		c1.2-0.9,2.1-1.9,2.7-3c1.1,1.8,1.8,3.7,2.1,5.7c-0.4,1.6-1,3.1-1.9,4.5C39.1,26.5,37.8,25.2,36,24z M28,35.6
		c0.1-0.1,0.3-0.3,0.4-0.4c0,0,0.1-0.1,0.1-0.1c0.2-0.2,0.4-0.4,0.5-0.6c0,0,0.1-0.1,0.1-0.1c0.2-0.2,0.4-0.4,0.5-0.6
		c0,0,0.1-0.1,0.1-0.1c0,0,0,0,0,0c0,0,0,0,0.1,0c0.1,0,0.3-0.1,0.4-0.1c0.1,0,0.3-0.1,0.4-0.1c0.1,0,0.3-0.1,0.4-0.1
		c0.1,0,0.3-0.1,0.4-0.1c0.1,0,0.3-0.1,0.4-0.1c0.1,0,0.3-0.1,0.4-0.1c0.1,0,0.3-0.1,0.4-0.1c0.1,0,0.3-0.1,0.4-0.1
		c0.1,0,0.3-0.1,0.4-0.1c0.1,0,0.3-0.1,0.4-0.2c0.1-0.1,0.3-0.1,0.4-0.2c0.1-0.1,0.3-0.1,0.4-0.2c0.1-0.1,0.3-0.1,0.4-0.2
		c0.1-0.1,0.3-0.1,0.4-0.2c0.1-0.1,0.3-0.1,0.4-0.2c0.1-0.1,0.3-0.1,0.4-0.2c0.1,0,0.1-0.1,0.2-0.1c0,0,0,0,0,0c0,0.2,0,0.4,0,0.7
		c-2.4,2.3-5.3,4.2-8.7,5.4C27.9,36.8,28,36.2,28,35.6z M25.1,38C25.1,38,25.1,37.9,25.1,38c0.3-0.2,0.5-0.3,0.7-0.5c0,0,0,0,0.1,0
		c0.2-0.2,0.4-0.3,0.6-0.5c0,0,0,0,0.1-0.1c0.2-0.2,0.4-0.3,0.6-0.5c0,0,0.1,0,0.1-0.1c0.1-0.1,0.2-0.2,0.3-0.3
		c0,0.5-0.1,1.1-0.1,1.6c-0.9,0.3-1.9,0.6-2.9,0.8C24.7,38.3,24.9,38.1,25.1,38z M18,34.9c0,0,0.1,0.1,0.1,0.1c0,0,0.1,0.1,0.1,0.1
		c0.2,0.2,0.4,0.4,0.5,0.6c0,0,0,0,0.1,0.1c0.2,0.2,0.4,0.4,0.6,0.5c0,0,0,0,0.1,0.1c0.2,0.2,0.4,0.3,0.6,0.5c0,0,0,0,0.1,0.1
		c0.2,0.2,0.4,0.3,0.6,0.5c0,0,0,0,0.1,0c0.2,0.2,0.4,0.3,0.6,0.5c0,0,0,0,0,0c0.2,0.2,0.4,0.3,0.6,0.5c-1.3-0.3-2.6-0.7-3.9-1.2
		C18.1,36.5,18,35.7,18,34.9z M9.7,31.4c0.1,0.1,0.3,0.1,0.4,0.2c0.1,0.1,0.2,0.1,0.3,0.2c0.1,0.1,0.3,0.1,0.4,0.2
		c0.1,0.1,0.2,0.1,0.4,0.2c0.1,0.1,0.3,0.1,0.5,0.2c0.1,0,0.2,0.1,0.4,0.1c0.2,0.1,0.3,0.1,0.5,0.2c0.1,0,0.2,0.1,0.4,0.1
		c0.2,0.1,0.3,0.1,0.5,0.2c0.1,0,0.2,0.1,0.4,0.1c0.2,0.1,0.3,0.1,0.5,0.2c0.1,0,0.2,0.1,0.3,0.1c0.2,0.1,0.4,0.1,0.6,0.1
		c0.1,0,0.2,0.1,0.3,0.1c0.2,0.1,0.5,0.1,0.7,0.2c0.1,0,0.1,0,0.2,0c0.3,0.1,0.5,0.1,0.8,0.1c0.1,0.1,0.3,0.3,0.4,0.4
		c0,1,0.1,1.8,0.1,2.6c-3.1-1.3-5.9-3.3-8.1-5.6C9.6,31.4,9.6,31.4,9.7,31.4z M9.3,25.5c0,0.2-0.1,0.4-0.1,0.6c0,0,0,0.1,0,0.1
		C9.1,26.4,9,26.6,9,26.9c0,0,0,0.1,0,0.1c0,0.3-0.1,0.5-0.1,0.8c0,0,0,0,0,0.1c0,0.3-0.1,0.5-0.1,0.8c0,0,0,0,0,0
		c0,0.3,0,0.5-0.1,0.8c0,0,0,0,0,0c0,0.3,0,0.5,0,0.8c0,0,0,0,0,0c-0.1,0-0.1-0.1-0.2-0.1c0,0,0,0-0.1,0c-0.5-0.6-1-1.3-1.4-1.9
		C7.5,27.2,8.3,26.3,9.3,25.5z M10.3,21.5c0,0.1,0,0.1,0.1,0.2c0,0,0,0.1,0,0.1c0,0,0,0,0,0c0,0,0,0,0,0.1c-0.1,0.2-0.2,0.5-0.3,0.7
		c0,0,0,0.1,0,0.1C10,23,9.9,23.2,9.9,23.5c0,0,0,0.1,0,0.1c-0.1,0.2-0.1,0.5-0.2,0.7c0,0,0,0.1,0,0.1c0,0.1,0,0.2-0.1,0.3
		c-1.2,0.9-2.1,1.9-2.7,3C5.7,25.9,4.9,24,4.6,22c0.4-1.6,1-3.1,1.9-4.5C7.2,19,8.5,20.3,10.3,21.5z M14.6,12.2
		c-0.1,0-0.2,0-0.3,0.1c-0.1,0-0.2,0.1-0.4,0.1c-0.2,0-0.3,0.1-0.5,0.1c-0.1,0-0.2,0.1-0.4,0.1c-0.2,0.1-0.3,0.1-0.5,0.2
		c-0.1,0-0.2,0.1-0.4,0.1c-0.1,0.1-0.3,0.1-0.4,0.2c-0.1,0-0.2,0.1-0.4,0.2c-0.1,0.1-0.3,0.1-0.4,0.2c-0.1,0.1-0.2,0.1-0.4,0.2
		c-0.1,0.1-0.3,0.1-0.4,0.2c-0.1,0.1-0.2,0.1-0.3,0.2c-0.1,0-0.1,0.1-0.2,0.1c0,0,0,0,0,0c0-0.2,0-0.4,0-0.7c1.1-1,2.3-2,3.6-2.8
		C13.6,11.2,14,11.7,14.6,12.2z M18.4,8.1c-0.1,0.6-0.1,1.3-0.1,1.9c-0.1,0.1-0.3,0.3-0.4,0.4c0,0-0.1,0.1-0.1,0.1
		c-0.2,0.2-0.4,0.4-0.5,0.6c0,0-0.1,0.1-0.1,0.1c-0.2,0.2-0.4,0.4-0.5,0.6l-0.1,0.1c0,0,0,0,0,0c-0.2,0-0.3,0.1-0.5,0.1
		c-0.1,0-0.2,0-0.3,0.1c-0.2,0-0.4,0.1-0.6,0.1c0,0,0,0,0,0c-0.7-0.5-1.1-1.1-1.4-1.7C15.2,9.4,16.8,8.6,18.4,8.1z M21.5,6.7
		c-0.8,0.2-1.7,0.4-2.5,0.7c0-0.3,0.1-0.5,0.1-0.7C19.9,6.6,20.7,6.6,21.5,6.7z M24.4,6.3c0,0,0.1,0,0.1-0.1c0,0,0.1,0,0.1-0.1
		c0.1,0,0.1-0.1,0.2-0.1C24.9,6,25,6,25,6c0,0,0,0,0,0c0.1,0,0.1-0.1,0.2-0.1c0,0,0.1,0,0.1,0c0,0,0,0,0.1,0c0.1,0,0.1,0,0.2-0.1
		c0,0,0.1,0,0.1,0c0,0,0.1,0,0.1,0c0.1,0,0.1,0,0.2-0.1c0,0,0,0,0.1,0c0,0,0.1,0,0.1,0c0.1,0,0.1,0,0.2-0.1c0,0,0,0,0,0
		c0,0,0.1,0,0.1,0c0.1,0,0.1,0,0.2-0.1c0,0,0.1,0,0.1,0c0.1,0,0.1,0,0.2-0.1c0,0,0.1,0,0.1,0c0.1,0,0.1,0,0.2,0c0.1,0,0.2,0,0.4,0.1
		c0.1,0.3,0.2,0.6,0.2,0.9C26.7,6.2,25.6,6.2,24.4,6.3z M28.1,7.8c-1.1-0.4-2.2-0.8-3.3-1c1.1-0.1,2.2-0.1,3.2,0
		C28,7,28,7.4,28.1,7.8z M31.1,12c-0.1,0-0.2,0-0.2-0.1c-0.2,0-0.3-0.1-0.5-0.1c-0.1,0-0.3-0.1-0.4-0.1c-0.2,0-0.3-0.1-0.5-0.1
		c-0.1,0-0.2,0-0.3-0.1c-0.1-0.1-0.3-0.3-0.4-0.4c0-1-0.1-1.8-0.1-2.6c1.3,0.6,2.5,1.2,3.7,2C32.1,11,31.6,11.5,31.1,12z M36.6,14.1
		c-0.1-0.1-0.3-0.1-0.4-0.2c-0.1-0.1-0.2-0.1-0.4-0.2c-0.1-0.1-0.3-0.1-0.4-0.2c-0.1-0.1-0.3-0.1-0.4-0.2c-0.1-0.1-0.3-0.1-0.4-0.2
		c-0.1-0.1-0.3-0.1-0.4-0.2c-0.1-0.1-0.3-0.1-0.4-0.2c-0.1,0-0.3-0.1-0.4-0.1c-0.1-0.1-0.3-0.1-0.4-0.1c-0.1,0-0.3-0.1-0.4-0.1
		c-0.1,0-0.3-0.1-0.4-0.1c-0.1,0-0.3-0.1-0.4-0.1c0,0,0,0-0.1,0c0.5-0.4,0.9-0.9,1.1-1.4c1.5,1,2.8,2.1,4,3.4
		C36.7,14.1,36.7,14.1,36.6,14.1z M37.1,19.5c0,0,0-0.1,0-0.1c0.1-0.3,0.1-0.5,0.1-0.8c0,0,0-0.1,0-0.1c0-0.3,0.1-0.5,0.1-0.8
		c0,0,0,0,0-0.1c0-0.3,0.1-0.5,0.1-0.8c0,0,0,0,0,0c0-0.3,0-0.5,0.1-0.8c0,0,0,0,0,0c0-0.3,0-0.5,0-0.8c0,0,0,0,0,0
		c0.1,0,0.1,0.1,0.2,0.1c0,0,0,0,0.1,0c0.5,0.6,1,1.3,1.4,1.9c-0.5,1-1.2,1.9-2.2,2.7C37.1,19.8,37.1,19.7,37.1,19.5z M16,12.3
		C16,12.4,16,12.4,16,12.3c-0.1,0.1-0.1,0.1-0.2,0.2c-0.1,0-0.1-0.1-0.2-0.1c0,0,0.1,0,0.1,0C15.9,12.4,16,12.4,16,12.3z M21.2,7.5
		C21.2,7.5,21.2,7.6,21.2,7.5C21,7.7,20.8,7.9,20.5,8c0,0,0,0-0.1,0c-0.2,0.2-0.4,0.3-0.6,0.5c0,0,0,0-0.1,0.1
		c-0.2,0.2-0.4,0.3-0.6,0.5c0,0-0.1,0-0.1,0.1c-0.1,0.1-0.2,0.2-0.3,0.3c0-0.5,0.1-1.1,0.1-1.6c0.9-0.3,1.9-0.6,2.9-0.8
		C21.6,7.2,21.4,7.4,21.2,7.5z M28.2,10.5C28.2,10.5,28.1,10.5,28.2,10.5c-0.3-0.3-0.4-0.5-0.6-0.6c0,0,0,0-0.1-0.1
		c-0.2-0.2-0.4-0.4-0.6-0.5c0,0,0,0-0.1-0.1c-0.2-0.2-0.4-0.4-0.6-0.5c0,0,0,0-0.1-0.1c-0.2-0.2-0.4-0.3-0.6-0.5c0,0,0,0,0,0
		c-0.2-0.2-0.4-0.3-0.6-0.5c0,0,0,0,0,0c-0.2-0.2-0.4-0.3-0.6-0.5c1.3,0.3,2.6,0.7,3.9,1.2c0.1,0.7,0.1,1.4,0.1,2.3
		C28.3,10.6,28.2,10.5,28.2,10.5z M22,34.4c0.1,0,0.3,0,0.4,0c0.2,0,0.4,0,0.5,0c0.1,0,0.1,0,0.2,0c0.1,0,0.2,0,0.3,0
		c0.2,0,0.3,0,0.5,0c0.2,0,0.3,0,0.5,0c0.1,0,0.3,0,0.4,0c-0.5,1.4-1,2.7-1.5,3.8C22.8,37.1,22.4,35.8,22,34.4
		C22,34.4,22,34.4,22,34.4z M28,21.7c1.4,0.2,2.8,0.6,4.1,1.1c-1.4,0.5-2.9,0.9-4.5,1.2C27.8,23.1,27.9,22.4,28,21.7z M19.5,21.5
		c2.3-0.3,4.7-0.3,7-0.1c0.1,0.9,0.2,1.7,0.4,2.6c-2.3,0.3-4.7,0.3-7,0.1C19.7,23.2,19.6,22.4,19.5,21.5z M18.3,23.8
		c-1.4-0.2-2.8-0.6-4.1-1.1c1.4-0.5,2.9-0.9,4.5-1.2C18.5,22.4,18.4,23.1,18.3,23.8z M19,22c0.1,0.7,0.2,1.3,0.3,2
		c-0.2,0-0.4-0.1-0.6-0.1C18.8,23.3,18.9,22.6,19,22z M20.6,14.7c0.8,0.1,1.7,0.2,2.5,0.2c0.7,0,1.5,0,2.2-0.1
		c0.4,2,0.8,4.1,1.2,6.2c-2.3-0.2-4.7-0.2-7,0.1c0-0.2-0.1-0.5-0.1-0.7C19.7,18.4,20.1,16.5,20.6,14.7z M20.1,14.6
		c-0.3,1.3-0.6,2.7-0.9,4c-0.1-1.5-0.2-2.9-0.3-4.3C19.3,14.4,19.7,14.5,20.1,14.6z M23.8,11.1c-0.2,0-0.3,0-0.5,0
		c-0.1,0-0.1,0-0.2,0c-0.1,0-0.2,0-0.3,0c-0.1,0-0.3,0-0.4,0c-0.2,0-0.4,0-0.5,0c-0.1,0-0.2,0-0.3,0c0.5-1.4,1-2.7,1.5-3.8
		c0.4,1.1,0.9,2.4,1.3,3.8C24.2,11.1,24,11.1,23.8,11.1z M21.5,11.6c0.1,0,0.1,0,0.2,0c0.9,0,1.9,0,2.8,0c0.2,0.9,0.5,1.7,0.7,2.7
		c-1.5,0.2-3,0.2-4.4,0C20.9,13.3,21.2,12.4,21.5,11.6C21.5,11.6,21.5,11.6,21.5,11.6z M27.6,21.6c-0.1,0.6-0.2,1.3-0.3,1.9
		c-0.1-0.7-0.2-1.3-0.3-2C27.2,21.5,27.4,21.5,27.6,21.6z M26.9,21c-0.3-2.2-0.7-4.3-1.2-6.3c0.9-0.1,1.7-0.3,2.5-0.6
		c-0.1,2.2-0.3,4.6-0.6,7C27.4,21.1,27.2,21,26.9,21z M29.2,12.3c0.1,0.1,0.2,0.2,0.3,0.4c0.1,0.1,0.1,0.1,0.2,0.2
		c-0.3,0.1-0.6,0.3-0.9,0.4c0-0.4,0-0.9,0-1.3c0,0,0.1,0,0.1,0C29,12.1,29.1,12.2,29.2,12.3z M25.6,11.6c0.3,0,0.5,0,0.8,0.1
		c0.1,0,0.2,0,0.2,0c0.2,0,0.4,0,0.7,0.1c0.1,0,0.2,0,0.3,0c0.2,0,0.4,0.1,0.6,0.1c0,0,0.1,0,0.1,0c0,0.5,0,1,0,1.6
		c-0.8,0.3-1.7,0.5-2.7,0.7c-0.2-0.9-0.4-1.8-0.6-2.6c0.1,0,0.3,0,0.4,0C25.5,11.6,25.5,11.6,25.6,11.6z M18.9,11.8
		c0.2,0,0.4,0,0.6-0.1c0.1,0,0.2,0,0.3,0c0.2,0,0.5,0,0.7-0.1c0.1,0,0.2,0,0.2,0c0.1,0,0.1,0,0.2,0c-0.2,0.8-0.5,1.6-0.7,2.5
		c-0.5-0.1-0.9-0.2-1.4-0.3c0-0.7,0-1.3,0-2C18.8,11.8,18.9,11.8,18.9,11.8z M24.6,33.9c-0.2,0-0.5,0-0.7,0c-0.1,0-0.2,0-0.2,0
		c-0.6,0-1.2,0-1.9,0c-0.8-2.8-1.4-6-1.9-9.3c1,0.1,2.1,0.2,3.2,0.2c1.3,0,2.6-0.1,3.8-0.2c0,0.2,0.1,0.5,0.1,0.7
		c-0.6,3.1-1.3,6.1-2.1,8.7C24.8,33.9,24.7,33.9,24.6,33.9z M30.3,13.8c0.1,0.1,0.2,0.3,0.3,0.4c0.1,0.1,0.2,0.2,0.3,0.4
		c0.1,0.1,0.2,0.3,0.3,0.4c0.1,0.1,0.2,0.2,0.2,0.4c0.1,0.1,0.2,0.3,0.3,0.4c0.1,0.1,0.2,0.3,0.2,0.4c0.1,0.1,0.2,0.3,0.2,0.4
		c0.1,0.2,0.2,0.3,0.3,0.5c0.1,0.2,0.2,0.4,0.4,0.6c0.1,0.2,0.2,0.3,0.3,0.5c0.1,0.1,0.1,0.2,0.2,0.4c0.1,0.2,0.2,0.3,0.2,0.5
		c0.1,0.1,0.1,0.2,0.2,0.4c0.1,0.2,0.2,0.3,0.2,0.5c0.1,0.1,0.1,0.3,0.2,0.4c0.1,0.2,0.1,0.3,0.2,0.5c0.1,0.1,0.1,0.3,0.2,0.4
		c0.1,0.2,0.1,0.3,0.2,0.5c0,0,0,0.1,0,0.1c-0.6,0.3-1.2,0.6-1.8,0.8c-1.5-0.6-3.1-1-4.7-1.3c0.3-2.5,0.6-5,0.7-7.3
		c0.4-0.2,0.8-0.3,1.2-0.5c0,0,0.1,0.1,0.1,0.1C30.1,13.5,30.2,13.7,30.3,13.8z M24.1,7.6c0.1,0.1,0.2,0.2,0.3,0.2
		c0.1,0.1,0.2,0.2,0.3,0.3c0.1,0.1,0.2,0.2,0.3,0.3c0.1,0.1,0.2,0.2,0.3,0.3c0.1,0.1,0.2,0.2,0.3,0.3C25.9,9,26,9.1,26.1,9.1
		c0.1,0.1,0.2,0.2,0.3,0.3c0.1,0.1,0.2,0.2,0.3,0.3c0.1,0.1,0.2,0.2,0.3,0.3c0.1,0.1,0.2,0.2,0.3,0.3c0.1,0.1,0.2,0.2,0.3,0.3
		c0.1,0.1,0.2,0.2,0.3,0.3c0.1,0.1,0.2,0.2,0.3,0.3c0,0,0,0,0,0c0,0,0,0.1,0,0.1c-0.1,0-0.1,0-0.2,0c-0.2,0-0.3,0-0.5-0.1
		c-0.1,0-0.3,0-0.4-0.1c-0.2,0-0.3,0-0.5-0.1c-0.2,0-0.3,0-0.5,0c-0.2,0-0.3,0-0.5,0c-0.2,0-0.3,0-0.5,0c-0.1,0-0.3,0-0.4,0
		c-0.4-1.4-0.8-2.7-1.2-3.8c0,0,0.1,0,0.1,0.1C23.8,7.4,24,7.5,24.1,7.6z M19,10c0.1-0.1,0.2-0.2,0.3-0.3c0.1-0.1,0.2-0.2,0.4-0.3
		c0.1-0.1,0.2-0.2,0.3-0.3c0.1-0.1,0.2-0.2,0.4-0.3c0.1-0.1,0.2-0.2,0.3-0.3c0.1-0.1,0.2-0.2,0.4-0.3c0.1-0.1,0.2-0.2,0.3-0.2
		c0.1-0.1,0.2-0.2,0.4-0.3c0.1-0.1,0.2-0.1,0.3-0.2c0.1-0.1,0.3-0.2,0.4-0.2c0,0,0.1,0,0.1-0.1c-0.5,1.1-1,2.4-1.5,3.9
		c0,0-0.1,0-0.1,0c-0.1,0-0.3,0-0.4,0c-0.2,0-0.4,0-0.5,0c-0.1,0-0.3,0-0.4,0c-0.2,0-0.4,0-0.6,0.1c-0.1,0-0.2,0-0.3,0
		c0-0.4,0-0.8,0-1.2C18.9,10.1,18.9,10,19,10z M17.6,12c0.1,0,0.2,0,0.3-0.1c0.1,0,0.2,0,0.3,0c0,0.6,0,1.2,0,1.7
		c-0.7-0.2-1.4-0.5-2-0.9c0.1-0.1,0.1-0.2,0.2-0.2c0.1-0.1,0.2-0.2,0.3-0.3c0,0,0-0.1,0.1-0.1c0.1,0,0.2,0,0.3-0.1
		C17.3,12.1,17.5,12.1,17.6,12z M11.4,20.7c0-0.1,0.1-0.2,0.1-0.3c0.1-0.2,0.2-0.4,0.3-0.6c0-0.1,0.1-0.1,0.1-0.2
		c0.1-0.2,0.2-0.5,0.3-0.7c0-0.1,0.1-0.1,0.1-0.2c0.4-0.8,0.9-1.6,1.4-2.4c0,0,0-0.1,0.1-0.1c0.1-0.2,0.3-0.5,0.4-0.7
		c0.1-0.1,0.1-0.2,0.2-0.2c0.1-0.2,0.2-0.4,0.4-0.5c0.1-0.1,0.1-0.2,0.2-0.3c0.1-0.2,0.2-0.3,0.3-0.5c0.1-0.1,0.2-0.2,0.2-0.3
		c0.1-0.1,0.2-0.3,0.3-0.4c0,0,0.1-0.1,0.1-0.1c0.7,0.4,1.5,0.7,2.4,1c0.1,2,0.2,4,0.5,6.1c0,0.3-0.1,0.5-0.1,0.8
		c-1.8,0.3-3.6,0.8-5.2,1.4c-0.8-0.3-1.6-0.7-2.3-1.1c0,0,0-0.1,0-0.1C11.3,21.1,11.3,20.9,11.4,20.7z M11.1,22.3
		c0-0.1-0.1-0.3-0.1-0.4c0,0,0,0,0,0c0.6,0.3,1.2,0.7,1.9,0.9c-0.5,0.2-0.9,0.4-1.3,0.6c0-0.1-0.1-0.2-0.1-0.3
		c0-0.1-0.1-0.3-0.1-0.4C11.2,22.6,11.1,22.4,11.1,22.3z M16.8,32.8c-0.1-0.1-0.2-0.2-0.3-0.4c-0.1-0.1-0.2-0.2-0.3-0.4
		c-0.1-0.1-0.2-0.2-0.3-0.4c-0.1-0.1-0.2-0.2-0.3-0.4c-0.1-0.1-0.2-0.3-0.3-0.4c-0.1-0.1-0.2-0.2-0.3-0.4c-0.1-0.1-0.2-0.3-0.3-0.4
		c-0.1-0.1-0.2-0.2-0.2-0.4c-0.1-0.1-0.2-0.3-0.3-0.4c-0.1-0.1-0.1-0.2-0.2-0.3c-0.1-0.2-0.3-0.4-0.4-0.7c-0.1-0.1-0.1-0.2-0.2-0.3
		c-0.1-0.2-0.2-0.4-0.4-0.7c-0.1-0.1-0.1-0.2-0.2-0.3c-0.1-0.2-0.2-0.3-0.3-0.5c-0.1-0.1-0.1-0.2-0.2-0.3c-0.1-0.2-0.2-0.3-0.2-0.5
		c-0.1-0.1-0.1-0.2-0.2-0.4c-0.1-0.2-0.1-0.3-0.2-0.5c-0.1-0.1-0.1-0.2-0.2-0.4c-0.1-0.2-0.1-0.3-0.2-0.5c0,0,0-0.1,0-0.1
		c0.6-0.3,1.2-0.6,1.8-0.8c1.5,0.6,3.1,1,4.7,1.3c-0.4,3.2-0.7,6.3-0.7,9.1c0,0-0.1,0-0.1,0c-0.1-0.1-0.2-0.2-0.2-0.3
		C17,33,16.9,32.9,16.8,32.8z M20.6,33.8c-0.2,0-0.4,0-0.6,0c-0.1,0-0.2,0-0.4,0c-0.2,0-0.4,0-0.6-0.1c-0.1,0-0.3,0-0.4-0.1
		c-0.2,0-0.4,0-0.5-0.1c0,0-0.1,0-0.1,0c0-2.8,0.3-6,0.7-9.1c0.2,0,0.5,0.1,0.7,0.1c0.5,3.3,1.2,6.6,1.9,9.4c-0.1,0-0.3,0-0.4,0
		C20.8,33.9,20.7,33.9,20.6,33.8z M26.9,33.7c-0.1,0-0.3,0-0.4,0c-0.2,0-0.4,0-0.6,0c-0.1,0-0.2,0-0.4,0c-0.1,0-0.1,0-0.2,0
		c0.7-2.1,1.3-4.5,1.8-7c0.2,2.4,0.4,4.7,0.4,6.8c0,0-0.1,0-0.1,0C27.2,33.7,27,33.7,26.9,33.7z M34.9,24.8c0,0.1-0.1,0.2-0.1,0.3
		c-0.1,0.2-0.2,0.4-0.3,0.6c0,0.1-0.1,0.1-0.1,0.2c-0.1,0.2-0.2,0.5-0.3,0.7c0,0.1,0,0.1-0.1,0.2c-0.4,0.8-0.9,1.6-1.4,2.4
		c0,0,0,0.1-0.1,0.1c-0.1,0.2-0.3,0.5-0.4,0.7c-0.1,0.1-0.1,0.2-0.2,0.2c-0.1,0.2-0.2,0.4-0.4,0.5c-0.1,0.1-0.1,0.2-0.2,0.3
		c-0.1,0.2-0.2,0.3-0.4,0.5c-0.1,0.1-0.2,0.2-0.2,0.3c-0.1,0.1-0.2,0.3-0.3,0.4c-0.1,0.1-0.2,0.2-0.3,0.3c-0.1,0.1-0.2,0.3-0.3,0.4
		c-0.1,0.1-0.2,0.2-0.3,0.3c0,0,0,0.1-0.1,0.1c-0.1,0-0.2,0-0.3,0.1c-0.2,0-0.3,0.1-0.5,0.1c-0.1,0-0.3,0-0.4,0.1
		c-0.1,0-0.2,0-0.3,0c0-2.6-0.2-5.5-0.5-8.4c0-0.3,0.1-0.5,0.1-0.8c1.8-0.3,3.6-0.8,5.2-1.4c0.8,0.3,1.6,0.7,2.3,1.1
		c0,0,0,0.1,0,0.1C35,24.4,35,24.6,34.9,24.8z M35.2,23.2c0,0.1,0.1,0.3,0.1,0.4c0,0,0,0,0,0c-0.6-0.3-1.2-0.7-1.9-0.9
		c0.5-0.2,0.9-0.4,1.3-0.6c0,0.1,0.1,0.2,0.1,0.3c0,0.1,0.1,0.3,0.1,0.4C35.1,22.9,35.2,23.1,35.2,23.2z M31.7,12.7
		c0.1,0,0.3,0.1,0.4,0.1c0.2,0,0.3,0.1,0.5,0.1c0.1,0,0.3,0.1,0.4,0.1c0.1,0,0.3,0.1,0.4,0.2c0.1,0,0.3,0.1,0.4,0.1
		c0.1,0.1,0.3,0.1,0.4,0.2c0.1,0.1,0.3,0.1,0.4,0.2c0.1,0.1,0.3,0.1,0.4,0.2c0.1,0.1,0.2,0.1,0.4,0.2c0.1,0.1,0.3,0.1,0.4,0.2
		c0.1,0.1,0.2,0.1,0.4,0.2c0.1,0.1,0.3,0.1,0.4,0.2c0.1,0.1,0.2,0.1,0.4,0.2c0.1,0.1,0.2,0.1,0.3,0.2c0,0.1,0,0.2,0,0.4
		c0,0.1,0,0.3,0,0.4c0,0.1,0,0.3,0,0.4c0,0.1,0,0.3,0,0.4c0,0.2,0,0.3,0,0.5c0,0.1,0,0.3,0,0.4c0,0.2,0,0.3-0.1,0.5
		c0,0.1,0,0.3-0.1,0.4c0,0.2-0.1,0.3-0.1,0.5c0,0.1,0,0.3-0.1,0.4c0,0.2-0.1,0.3-0.1,0.5c0,0.1-0.1,0.2-0.1,0.4
		c0,0.2-0.1,0.3-0.1,0.5c0,0,0,0.1,0,0.1c-0.4,0.3-0.8,0.6-1.3,0.9c0,0,0-0.1,0-0.1c0,0,0-0.1,0-0.1c-0.1-0.3-0.2-0.5-0.3-0.8
		c0,0,0-0.1,0-0.1c-0.1-0.3-0.2-0.5-0.3-0.8c0,0,0,0,0-0.1c-0.1-0.3-0.2-0.5-0.4-0.8c0,0,0,0,0,0c-0.1-0.3-0.3-0.5-0.4-0.8
		c0,0,0,0,0,0c-0.3-0.5-0.6-1.1-0.9-1.6c0,0,0,0,0,0c-0.2-0.3-0.3-0.5-0.5-0.7c0,0,0,0,0,0c-0.2-0.2-0.3-0.5-0.5-0.7c0,0,0,0,0-0.1
		c-0.2-0.2-0.3-0.5-0.5-0.7c0,0,0,0,0-0.1c-0.2-0.2-0.3-0.4-0.5-0.7c0,0,0-0.1-0.1-0.1c0,0-0.1-0.1-0.1-0.1c0.3-0.2,0.6-0.4,0.8-0.5
		c0,0,0,0,0.1,0C31.4,12.6,31.6,12.6,31.7,12.7z M30.4,12.3c0.1,0,0.1,0,0.2,0c-0.2,0.1-0.3,0.2-0.5,0.3c0,0-0.1-0.1-0.1-0.1
		c0,0,0-0.1-0.1-0.1c-0.1-0.1-0.1-0.2-0.2-0.3c0.1,0,0.2,0,0.3,0.1C30.1,12.3,30.2,12.3,30.4,12.3z M17.7,11.2
		c0.1-0.1,0.2-0.2,0.3-0.3c0.1-0.1,0.2-0.2,0.3-0.3c0,0.3,0,0.6,0,0.8c-0.1,0-0.1,0-0.2,0c-0.1,0-0.2,0-0.3,0
		c-0.2,0-0.3,0.1-0.5,0.1c0,0,0,0,0,0C17.5,11.5,17.6,11.3,17.7,11.2z M10.6,20.5c0-0.1-0.1-0.3-0.1-0.4c0-0.2-0.1-0.3-0.1-0.5
		c0-0.1-0.1-0.3-0.1-0.4c0-0.2-0.1-0.3-0.1-0.5c0-0.1,0-0.3-0.1-0.4c0-0.2-0.1-0.3-0.1-0.5c0-0.1,0-0.3-0.1-0.4c0-0.2,0-0.3-0.1-0.5
		c0-0.1,0-0.3,0-0.4c0-0.1,0-0.3,0-0.4c0-0.1,0-0.3,0-0.4c0-0.1,0-0.3,0-0.4c0-0.1,0-0.3,0-0.4c0-0.1,0-0.2,0-0.4
		c0.1-0.1,0.2-0.1,0.3-0.2c0.1-0.1,0.2-0.1,0.4-0.2c0.1-0.1,0.3-0.1,0.4-0.2c0.1-0.1,0.2-0.1,0.4-0.2c0.1-0.1,0.3-0.1,0.4-0.2
		c0.1-0.1,0.2-0.1,0.4-0.2c0.1-0.1,0.3-0.1,0.4-0.2c0.1,0,0.2-0.1,0.4-0.1c0.2-0.1,0.3-0.1,0.5-0.2c0.1,0,0.2-0.1,0.4-0.1
		c0.2-0.1,0.3-0.1,0.5-0.1c0.1,0,0.2-0.1,0.4-0.1c0.2,0,0.3-0.1,0.5-0.1c0,0,0.1,0,0.1,0c0.2,0.1,0.3,0.2,0.5,0.3
		c0,0-0.1,0.1-0.1,0.1c0,0,0,0.1-0.1,0.1c-0.2,0.2-0.3,0.4-0.5,0.6c0,0,0,0.1-0.1,0.1c-0.2,0.2-0.3,0.4-0.5,0.7c0,0,0,0.1-0.1,0.1
		c-0.2,0.2-0.3,0.5-0.5,0.7c0,0,0,0,0,0.1c-0.2,0.2-0.3,0.5-0.5,0.7c0,0,0,0,0,0c-0.2,0.2-0.3,0.5-0.5,0.7c0,0,0,0,0,0
		c-0.1,0.2-0.3,0.5-0.4,0.8c0,0,0,0,0,0.1c-0.1,0.2-0.3,0.5-0.4,0.7c0,0,0,0.1,0,0.1c-0.1,0.2-0.2,0.5-0.4,0.7c0,0,0,0.1,0,0.1
		c-0.1,0.2-0.2,0.5-0.3,0.7c0,0,0,0.1-0.1,0.1c-0.1,0.2-0.2,0.5-0.3,0.7c0,0,0,0.1-0.1,0.1c0,0,0,0,0,0.1c0,0,0,0,0-0.1
		C10.7,20.9,10.6,20.7,10.6,20.5z M10.2,23.8c0.1-0.2,0.1-0.4,0.2-0.5c0-0.1,0.1-0.2,0.1-0.3c0-0.1,0.1-0.3,0.1-0.4c0,0,0,0,0,0.1
		c0.1,0.2,0.2,0.5,0.3,0.7c0,0,0,0.1,0,0.1c0,0.1,0,0.1,0.1,0.2c-0.3,0.2-0.6,0.4-0.9,0.6c0,0,0,0,0-0.1
		C10.2,24.1,10.2,24,10.2,23.8z M15.9,33.2c-0.2,0-0.3-0.1-0.5-0.1c-0.1,0-0.3-0.1-0.4-0.1c-0.2,0-0.3-0.1-0.5-0.1
		c-0.1,0-0.3-0.1-0.4-0.1c-0.1,0-0.3-0.1-0.4-0.1c-0.1,0-0.3-0.1-0.4-0.1c-0.1,0-0.3-0.1-0.4-0.1c-0.1,0-0.3-0.1-0.4-0.1
		c-0.1-0.1-0.3-0.1-0.4-0.2c-0.1-0.1-0.3-0.1-0.4-0.2c-0.1-0.1-0.3-0.1-0.4-0.2c-0.1-0.1-0.3-0.1-0.4-0.2c-0.1-0.1-0.3-0.1-0.4-0.2
		c-0.1-0.1-0.2-0.1-0.4-0.2c-0.1-0.1-0.3-0.1-0.4-0.2c-0.1-0.1-0.2-0.1-0.4-0.2c-0.1-0.1-0.2-0.1-0.3-0.2c0-0.1,0-0.2,0-0.4
		c0-0.1,0-0.3,0-0.4c0-0.1,0-0.3,0-0.4c0-0.1,0-0.3,0-0.4c0-0.2,0-0.3,0-0.5c0-0.1,0-0.3,0-0.4c0-0.2,0-0.3,0.1-0.5
		c0-0.1,0-0.3,0.1-0.4c0-0.2,0.1-0.3,0.1-0.5c0-0.1,0-0.3,0.1-0.4c0-0.2,0.1-0.3,0.1-0.5c0-0.1,0.1-0.2,0.1-0.4
		c0-0.2,0.1-0.3,0.1-0.5c0,0,0,0,0-0.1c0.4-0.3,0.8-0.6,1.3-0.9c0,0,0,0.1,0,0.1c0,0,0,0.1,0,0.1c0.1,0.2,0.2,0.5,0.3,0.7
		c0,0,0,0.1,0,0.1c0.1,0.3,0.2,0.5,0.3,0.8c0,0,0,0.1,0,0.1c0.1,0.3,0.2,0.5,0.4,0.8c0,0,0,0,0,0.1c0.1,0.3,0.3,0.5,0.4,0.8
		c0,0,0,0,0,0c0.1,0.3,0.3,0.5,0.4,0.8c0,0,0,0,0,0c0.1,0.3,0.3,0.5,0.4,0.8c0,0,0,0,0,0c0.1,0.2,0.3,0.5,0.5,0.7c0,0,0,0,0,0.1
		c0.2,0.2,0.3,0.5,0.5,0.7c0,0,0,0,0,0.1c0.2,0.2,0.3,0.5,0.5,0.7c0,0,0,0.1,0.1,0.1c0.2,0.2,0.3,0.4,0.5,0.7c0,0,0,0.1,0.1,0.1
		c0.2,0.2,0.3,0.4,0.5,0.6c0,0,0,0.1,0.1,0.1c0.1,0.1,0.1,0.2,0.2,0.3c-0.1,0-0.2,0-0.3-0.1C16.2,33.2,16.1,33.2,15.9,33.2z
		 M22.2,37.9c-0.1-0.1-0.2-0.2-0.3-0.2c-0.1-0.1-0.2-0.2-0.3-0.3c-0.1-0.1-0.2-0.2-0.3-0.3c-0.1-0.1-0.2-0.2-0.3-0.3
		c-0.1-0.1-0.2-0.2-0.3-0.3c-0.1-0.1-0.2-0.2-0.3-0.3c-0.1-0.1-0.2-0.2-0.3-0.3c-0.1-0.1-0.2-0.2-0.3-0.3c-0.1-0.1-0.2-0.2-0.3-0.3
		c-0.1-0.1-0.2-0.2-0.3-0.3c-0.1-0.1-0.2-0.2-0.3-0.3c-0.1-0.1-0.2-0.2-0.3-0.3c-0.1-0.1-0.2-0.2-0.3-0.3c0,0,0,0,0,0
		c0,0,0-0.1,0-0.1c0.1,0,0.1,0,0.2,0c0.1,0,0.2,0,0.3,0c0.2,0,0.4,0.1,0.6,0.1c0.1,0,0.2,0,0.4,0c0.2,0,0.4,0,0.6,0.1
		c0.1,0,0.3,0,0.4,0c0.2,0,0.4,0,0.5,0c0.1,0,0.3,0,0.4,0h0c0.4,1.4,0.8,2.7,1.2,3.8c0,0-0.1,0-0.1-0.1C22.5,38.1,22.3,38,22.2,37.9
		z M27,35.8c-0.1,0.1-0.2,0.2-0.4,0.3c-0.1,0.1-0.2,0.2-0.3,0.3c-0.1,0.1-0.2,0.2-0.4,0.3c-0.1,0.1-0.2,0.2-0.3,0.3
		c-0.1,0.1-0.2,0.2-0.4,0.3c-0.1,0.1-0.2,0.2-0.3,0.2c-0.1,0.1-0.2,0.2-0.4,0.3c-0.1,0.1-0.2,0.1-0.3,0.2c-0.1,0.1-0.3,0.2-0.4,0.2
		c0,0-0.1,0-0.1,0.1c0.5-1.1,1-2.4,1.5-3.9c0,0,0,0,0,0c0.2,0,0.3,0,0.5,0c0.2,0,0.3,0,0.5,0c0.2,0,0.3,0,0.5,0c0.2,0,0.3,0,0.5-0.1
		c0.1,0,0.3,0,0.4-0.1c0,0.4,0,0.8,0,1.2c-0.1,0.1-0.1,0.1-0.2,0.2C27.2,35.6,27.1,35.7,27,35.8z M28.6,34.3
		c-0.1,0.1-0.2,0.2-0.3,0.3c-0.1,0.1-0.2,0.2-0.3,0.3c0-0.3,0-0.6,0-0.8c0.1,0,0.3,0,0.4-0.1c0.1,0,0.3,0,0.4-0.1c0,0,0,0,0,0
		c0,0,0,0,0,0C28.8,34,28.7,34.2,28.6,34.3z M35.7,25c0,0.1,0.1,0.3,0.1,0.4c0,0.2,0.1,0.3,0.1,0.5c0,0.1,0.1,0.3,0.1,0.4
		c0,0.2,0.1,0.3,0.1,0.5c0,0.1,0,0.3,0.1,0.4c0,0.2,0.1,0.3,0.1,0.5c0,0.1,0,0.3,0.1,0.4c0,0.1,0,0.3,0.1,0.4c0,0.1,0,0.3,0,0.4
		c0,0.1,0,0.3,0,0.4c0,0.1,0,0.3,0,0.4c0,0.1,0,0.3,0,0.4c0,0.1,0,0.3,0,0.4c0,0.1,0,0.2,0,0.4c-0.1,0.1-0.2,0.1-0.3,0.2
		c-0.1,0.1-0.2,0.1-0.4,0.2c-0.1,0.1-0.3,0.1-0.4,0.2c-0.1,0.1-0.2,0.1-0.4,0.2c-0.1,0.1-0.3,0.1-0.4,0.2c-0.1,0.1-0.3,0.1-0.4,0.2
		c-0.1,0.1-0.3,0.1-0.4,0.2c-0.1,0-0.3,0.1-0.4,0.1c-0.1,0.1-0.3,0.1-0.4,0.2c-0.1,0-0.3,0.1-0.4,0.1c-0.1,0-0.3,0.1-0.5,0.1
		c-0.1,0-0.3,0.1-0.4,0.1c-0.2,0-0.3,0.1-0.5,0.1c-0.1,0-0.3,0.1-0.4,0.1c-0.2,0-0.3,0.1-0.5,0.1c-0.1,0-0.2,0-0.2,0.1
		c0,0,0,0,0-0.1c0.2-0.2,0.3-0.4,0.5-0.6c0,0,0.1-0.1,0.1-0.1c0.2-0.2,0.3-0.4,0.5-0.6c0,0,0-0.1,0.1-0.1c0.2-0.2,0.3-0.4,0.5-0.7
		c0,0,0-0.1,0.1-0.1c0.2-0.2,0.3-0.5,0.5-0.7c0,0,0,0,0-0.1c0.2-0.2,0.3-0.5,0.5-0.7c0,0,0,0,0,0c0.2-0.2,0.3-0.5,0.4-0.7
		c0,0,0,0,0,0c0.1-0.2,0.3-0.5,0.4-0.7c0,0,0,0,0-0.1c0.1-0.2,0.3-0.5,0.4-0.7c0,0,0-0.1,0-0.1c0.1-0.2,0.2-0.5,0.4-0.7
		c0,0,0-0.1,0-0.1c0.1-0.2,0.2-0.5,0.3-0.7c0,0,0-0.1,0.1-0.1c0.1-0.2,0.2-0.5,0.3-0.7c0,0,0-0.1,0.1-0.1c0,0,0,0,0-0.1
		c0,0,0,0.1,0,0.1C35.6,24.6,35.7,24.8,35.7,25z M36.1,21.7c-0.1,0.2-0.1,0.4-0.2,0.5c0,0.1-0.1,0.2-0.1,0.3c0,0.1-0.1,0.3-0.1,0.4
		c0,0,0,0,0-0.1c-0.1-0.3-0.2-0.5-0.3-0.8c0,0,0-0.1,0-0.1c0-0.1,0-0.1-0.1-0.2c0.3-0.2,0.6-0.4,0.9-0.6c0,0,0,0,0,0
		C36.1,21.4,36.1,21.5,36.1,21.7z M32.8,8.9c0,0.4-0.1,0.8-0.2,1.2c-1.2-0.8-2.6-1.5-4-2.1c0-0.4-0.1-0.8-0.2-1.2
		c1.5,0.1,2.9,0.4,4.2,0.9C32.8,8.1,32.8,8.5,32.8,8.9z M19.3,5.3c0.1,0,0.2,0,0.2,0.1c0,0,0.1,0,0.1,0c0.1,0,0.2,0.1,0.3,0.1
		c0,0,0.1,0,0.1,0c0.1,0,0.2,0.1,0.3,0.1c0,0,0,0,0,0c0.1,0,0.2,0.1,0.3,0.1c0,0,0.1,0,0.1,0c0.1,0,0.2,0.1,0.2,0.1
		c0,0,0.1,0,0.1,0.1C21.3,6,21.3,6,21.4,6c0,0,0.1,0,0.1,0.1c0.1,0,0.1,0.1,0.2,0.1c0,0,0,0,0.1,0c-0.9-0.1-1.8-0.1-2.7-0.1
		C19.2,5.8,19.3,5.5,19.3,5.3C19.3,5.3,19.3,5.3,19.3,5.3z M13.4,8.8c0-0.5,0.1-0.9,0.3-1.3c1.5-0.5,3.2-0.8,4.9-0.9
		c0,0.3-0.1,0.6-0.1,0.9c-1.7,0.6-3.4,1.4-4.9,2.3C13.4,9.5,13.4,9.2,13.4,8.8z M7.5,16.1c0,0,0.1-0.1,0.1-0.1
		c0.1,0,0.1-0.1,0.2-0.1c0,0,0.1-0.1,0.1-0.1c0.1,0,0.1-0.1,0.2-0.1c0,0,0.1,0,0.1-0.1c0.1-0.1,0.2-0.1,0.3-0.2c0,0,0,0,0,0
		c0.2-0.1,0.4-0.3,0.7-0.4c0,0,0,0,0,0c0,0.3,0,0.5,0,0.8c0,0,0,0,0,0c0,0.3,0,0.5,0.1,0.8c0,0,0,0,0,0.1c0,0.3,0.1,0.5,0.1,0.8
		c0,0,0,0.1,0,0.1c0,0.3,0.1,0.5,0.1,0.8c0,0,0,0.1,0,0.1c0,0.2,0.1,0.5,0.1,0.7c0,0,0,0.1,0,0.1c0.1,0.2,0.1,0.5,0.2,0.7
		c0,0,0,0.1,0,0.1c0.1,0.2,0.1,0.5,0.2,0.7c-1.6-1.1-2.7-2.4-3.3-3.7c0.2-0.3,0.3-0.5,0.5-0.8c0,0,0,0,0,0
		C7.4,16.2,7.5,16.1,7.5,16.1z M38.8,29.4c0,0-0.1,0.1-0.1,0.1c-0.1,0-0.1,0.1-0.2,0.1c0,0-0.1,0.1-0.1,0.1c-0.1,0-0.1,0.1-0.2,0.1
		c0,0-0.1,0.1-0.1,0.1c-0.1,0-0.1,0.1-0.2,0.1c0,0-0.1,0-0.1,0.1c-0.2,0.1-0.4,0.3-0.7,0.4c0-0.3,0-0.5,0-0.8c0,0,0,0,0,0
		c0-0.3,0-0.5-0.1-0.8c0,0,0,0,0-0.1c0-0.3-0.1-0.5-0.1-0.8c0,0,0,0,0-0.1c0-0.3-0.1-0.5-0.1-0.8c0,0,0-0.1,0-0.1
		c0-0.3-0.1-0.5-0.1-0.8c0,0,0-0.1,0-0.1c-0.1-0.3-0.1-0.5-0.2-0.8c0,0,0-0.1,0-0.1c-0.1-0.2-0.1-0.5-0.2-0.7
		c1.6,1.1,2.7,2.4,3.3,3.7c-0.2,0.3-0.3,0.5-0.5,0.8c0,0,0,0,0,0C38.9,29.3,38.8,29.4,38.8,29.4z M40.3,17.4c0,0,0.1,0.1,0.1,0.1
		c0,0,0.1,0.1,0.1,0.1c0,0,0.1,0.1,0.1,0.1c0,0,0.1,0.1,0.1,0.1c0,0,0.1,0.1,0.1,0.1c0,0,0.1,0.1,0.1,0.1c0,0,0.1,0.1,0.1,0.1
		c0,0,0.1,0.1,0.1,0.1c0,0,0.1,0.1,0.1,0.1c0,0,0.1,0.1,0.1,0.1c0,0,0.1,0.1,0.1,0.1c0,0,0.1,0.1,0.1,0.1c0,0,0.1,0.1,0.1,0.1
		c0,0,0.1,0.1,0.1,0.1c0,0,0,0.1,0.1,0.1c0,0,0,0.1,0.1,0.1c0,0,0,0.1,0.1,0.1c0,0,0,0.1,0.1,0.1c0,0,0,0.1,0.1,0.1
		c0,0,0,0.1,0.1,0.1c0,0,0,0.1,0.1,0.1c0,0,0,0.1,0.1,0.1c0,0,0,0,0,0c0,0.7-0.1,1.5-0.2,2.2c-0.4-1.7-1.2-3.4-2.1-5
		c0-0.1,0.1-0.2,0.1-0.3c0,0,0,0,0,0c0,0,0.1,0.1,0.1,0.1c0,0,0.1,0.1,0.1,0.1C40.2,17.3,40.3,17.3,40.3,17.4z M39.4,16.6
		c0,0,0.1,0.1,0.1,0.1c0,0,0,0.1-0.1,0.1c-0.1-0.1-0.2-0.3-0.3-0.4c0,0,0.1,0.1,0.1,0.1C39.4,16.5,39.4,16.5,39.4,16.6z M36.3,9.8
		c0.1,0.2,0.1,0.3,0.2,0.5c0,0,0,0.1,0,0.1c0.1,0.2,0.1,0.3,0.2,0.5c0,0,0,0,0,0.1c0,0.2,0.1,0.4,0.1,0.6c0,0,0,0,0,0.1
		c0,0.2,0.1,0.4,0.1,0.6c0,0,0,0,0,0c0,0.2,0.1,0.4,0.1,0.6l0,0c0,0.2,0,0.4,0.1,0.7c0,0,0,0,0,0c0,0.1,0,0.1,0,0.2
		c-1.2-1.3-2.6-2.5-4.1-3.5c0.2-0.5,0.3-0.9,0.3-1.4c0-0.3,0-0.7-0.1-1c1,0.4,2,0.9,2.9,1.4C36.1,9.5,36.2,9.6,36.3,9.8
		C36.3,9.8,36.3,9.8,36.3,9.8z M35.5,8.3c0,0.1,0.1,0.1,0.1,0.2C34.8,8,33.9,7.6,33,7.3c-0.1-0.2-0.2-0.4-0.3-0.6
		c0.9,0.4,1.8,0.8,2.6,1.3C35.3,8,35.4,8.1,35.5,8.3C35.5,8.2,35.5,8.3,35.5,8.3z M20.8,3.5c0.3,0.1,0.7,0.6,1,1.1
		c-0.8,0-1.5,0.1-2.3,0.2c0.2-0.5,0.4-0.9,0.6-1.1C20.3,3.6,20.5,3.5,20.8,3.5z M9.8,12.6c0-0.2,0.1-0.4,0.1-0.7c0,0,0,0,0,0
		c0-0.2,0.1-0.4,0.1-0.6c0,0,0,0,0-0.1c0-0.2,0.1-0.4,0.1-0.6c0,0,0,0,0-0.1c0-0.2,0.1-0.4,0.2-0.5c0,0,0,0,0-0.1
		c0.1-0.2,0.1-0.3,0.2-0.5c0,0,0,0,0-0.1c0.1-0.2,0.1-0.3,0.2-0.5c0,0,0,0,0-0.1c0-0.1,0.1-0.1,0.1-0.2c0.7-0.4,1.4-0.7,2.2-1
		c-0.1,0.4-0.2,0.7-0.2,1.1c0,0.4,0.1,0.9,0.2,1.3C11.9,10.9,10.8,11.8,9.8,12.6C9.8,12.7,9.8,12.7,9.8,12.6
		C9.8,12.7,9.8,12.6,9.8,12.6z M4.5,19.5c0,0,0-0.1,0.1-0.1c0,0,0-0.1,0.1-0.1c0,0,0.1-0.1,0.1-0.1c0,0,0.1-0.1,0.1-0.1
		c0,0,0.1-0.1,0.1-0.1c0,0,0.1-0.1,0.1-0.1c0,0,0.1-0.1,0.1-0.1c0,0,0.1-0.1,0.1-0.1c0,0,0.1-0.1,0.1-0.1c0,0,0.1-0.1,0.1-0.1
		c0,0,0.1-0.1,0.1-0.1c0,0,0.1-0.1,0.1-0.1c0,0,0.1-0.1,0.1-0.1c0,0,0.1-0.1,0.1-0.1c0,0,0.1-0.1,0.1-0.1c0,0,0,0,0,0
		c-0.6,1.1-1.1,2.1-1.5,3.3c0-0.4,0-0.7-0.1-1.1c0,0,0-0.1,0.1-0.1C4.5,19.5,4.5,19.5,4.5,19.5z M3.7,23.9c0,0,0-0.1,0-0.1
		c0-0.1,0-0.1,0-0.2c0,0,0-0.1,0-0.1c0-0.1,0-0.1,0-0.2c0,0,0-0.1,0-0.1c0-0.1,0-0.1,0-0.2c0,0,0-0.1,0-0.1c0-0.1,0-0.1,0-0.2
		c0-0.1,0-0.2,0-0.4c0,0,0,0,0-0.1c0-0.1,0-0.1,0-0.2c0,0,0-0.1,0-0.1c0-0.1,0-0.1,0-0.2c0,0,0-0.1,0-0.1c0-0.1,0-0.1,0-0.2
		c0,0,0-0.1,0-0.1c0,0,0-0.1,0-0.1c0,0,0-0.1,0-0.1c0,0,0-0.1,0-0.1c0,0,0-0.1,0-0.1c0,0,0-0.1,0-0.1C4,21.2,4,21.6,4.1,22
		c-0.2,0.7-0.3,1.3-0.3,2c0,0,0,0,0,0C3.8,24,3.7,23.9,3.7,23.9z M6,28.1c0,0-0.1-0.1-0.1-0.1c0,0-0.1-0.1-0.1-0.1
		c0,0-0.1-0.1-0.1-0.1c0,0-0.1-0.1-0.1-0.1c0,0-0.1-0.1-0.1-0.1c0,0-0.1-0.1-0.1-0.1c0,0-0.1-0.1-0.1-0.1c0,0-0.1-0.1-0.1-0.1
		c0,0-0.1-0.1-0.1-0.1c0,0-0.1-0.1-0.1-0.1c0,0-0.1-0.1-0.1-0.1c0,0-0.1-0.1-0.1-0.1c0,0-0.1-0.1-0.1-0.1c0,0-0.1-0.1-0.1-0.1
		c0,0,0-0.1-0.1-0.1c0,0,0-0.1-0.1-0.1c0,0,0-0.1-0.1-0.1c0,0,0-0.1-0.1-0.1c0,0,0-0.1-0.1-0.1c0,0,0-0.1-0.1-0.1c0,0,0-0.1-0.1-0.1
		c0,0,0-0.1-0.1-0.1c0,0,0,0,0,0c0-0.7,0.1-1.5,0.2-2.2c0.4,1.7,1.2,3.4,2.1,5c0,0.1-0.1,0.2-0.1,0.3c0,0,0,0,0,0
		c0,0-0.1-0.1-0.1-0.1c0,0-0.1-0.1-0.1-0.1C6.1,28.2,6,28.2,6,28.1z M6.9,28.9C6.8,28.9,6.8,28.9,6.9,28.9c-0.1-0.1-0.1-0.2,0-0.2
		C6.9,28.8,7,29,7.1,29.1C7,29.1,7,29.1,7,29C6.9,29,6.9,29,6.9,28.9z M10,35.7C10,35.7,10,35.7,10,35.7c-0.1-0.2-0.2-0.4-0.2-0.6
		c0,0,0-0.1,0-0.1c-0.1-0.2-0.1-0.3-0.2-0.5c0,0,0,0,0-0.1c0-0.2-0.1-0.4-0.1-0.6c0,0,0,0,0-0.1c0-0.2-0.1-0.4-0.1-0.6c0,0,0,0,0,0
		c0-0.2-0.1-0.4-0.1-0.6l0,0c0-0.2,0-0.4-0.1-0.7c0,0,0,0,0,0c0-0.1,0-0.1,0-0.2c2.3,2.4,5.2,4.5,8.5,5.8c0,0.4,0.1,0.8,0.2,1.2
		c-2.8-0.3-5.4-1.2-7.6-2.6C10.2,36,10.1,35.9,10,35.7z M35.8,37.1c0.3-0.2,0.6-0.4,0.9-0.5c-0.3,0.2-0.6,0.4-0.9,0.7
		C35.8,37.2,35.8,37.2,35.8,37.1z M36.5,32.9c0,0.2-0.1,0.4-0.1,0.7c0,0,0,0,0,0c0,0.2-0.1,0.4-0.1,0.6c0,0,0,0,0,0.1
		c0,0.2-0.1,0.4-0.1,0.6c0,0,0,0,0,0.1c0,0.2-0.1,0.4-0.2,0.5c0,0,0,0,0,0.1c-0.1,0.2-0.1,0.3-0.2,0.5c0,0,0,0,0,0.1
		c-0.1,0.2-0.1,0.3-0.2,0.5c0,0,0,0,0,0.1c0,0.1-0.1,0.1-0.1,0.2c-2.2,1.3-4.8,2-7.7,2.1c0-0.3,0.1-0.6,0.1-0.9
		C31.1,36.8,34.1,35,36.5,32.9C36.5,32.8,36.5,32.8,36.5,32.9C36.5,32.8,36.5,32.9,36.5,32.9z M41.8,26c0,0,0,0.1-0.1,0.1
		c0,0,0,0.1-0.1,0.1c0,0-0.1,0.1-0.1,0.1c0,0-0.1,0.1-0.1,0.1c0,0-0.1,0.1-0.1,0.1c0,0-0.1,0.1-0.1,0.1c0,0-0.1,0.1-0.1,0.1
		c0,0-0.1,0.1-0.1,0.1c0,0-0.1,0.1-0.1,0.1c0,0-0.1,0.1-0.1,0.1c0,0-0.1,0.1-0.1,0.1c0,0-0.1,0.1-0.1,0.1c0,0-0.1,0.1-0.1,0.1
		c0,0-0.1,0.1-0.1,0.1c0,0-0.1,0.1-0.1,0.1c0,0,0,0,0,0c0.6-1.1,1.1-2.1,1.5-3.3c0,0.4,0,0.7,0.1,1.1c0,0,0,0.1-0.1,0.1
		C41.8,26,41.8,26,41.8,26z M42.6,21.6c0,0,0,0.1,0,0.1c0,0,0,0.1,0,0.1c0,0,0,0.1,0,0.1c0,0.1,0,0.1,0,0.2c0,0,0,0.1,0,0.1
		c0,0.1,0,0.1,0,0.2c0,0,0,0.1,0,0.1c0,0.1,0,0.1,0,0.2c0,0.1,0,0.1,0,0.2c0,0,0,0.1,0,0.1c0,0,0,0.1,0,0.1c0,0.1,0,0.1,0,0.2
		c0,0,0,0.1,0,0.1c0,0.1,0,0.1,0,0.2c0,0,0,0.1,0,0.1c0,0.1,0,0.1,0,0.2c0,0,0,0.1,0,0.1c0,0.1,0,0.1,0,0.2c0,0,0,0.1,0,0.1
		c0,0,0,0.1,0,0.1c0,0,0,0.1,0,0.1c0,0,0,0.1,0,0.1c0-0.4-0.1-0.8-0.2-1.2c0.2-0.7,0.3-1.3,0.3-2c0,0,0,0,0,0
		C42.5,21.5,42.6,21.6,42.6,21.6z M34,6.6c0.1,0.1,0.2,0.2,0.3,0.2c-0.7-0.3-1.4-0.7-2.2-0.9c-0.2-0.2-0.5-0.5-0.7-0.7
		c0,0,0.1,0,0.1,0c0,0,0.1,0,0.1,0c0.1,0,0.1,0,0.1,0c0,0,0.1,0,0.1,0c0.1,0,0.1,0,0.1,0.1c0,0,0.1,0,0.1,0c0.1,0,0.1,0,0.1,0.1
		c0,0,0.1,0,0.1,0c0.1,0,0.1,0,0.2,0.1c0,0,0.1,0,0.1,0c0.1,0,0.1,0.1,0.2,0.1c0,0,0.1,0,0.1,0c0,0,0,0,0,0C33,5.9,33.1,6,33.1,6
		c0,0,0,0,0,0c0.1,0.1,0.3,0.2,0.4,0.3c0,0,0,0,0.1,0C33.7,6.4,33.9,6.5,34,6.6C34,6.6,34,6.6,34,6.6z M26.7,3.7
		c0.2,0.2,0.5,0.5,0.7,1c0,0-0.1,0-0.1,0l0,0c0,0,0,0,0,0c0,0,0,0-0.1,0c-0.8-0.1-1.7-0.2-2.5-0.2c0.4-0.5,0.8-0.9,1.2-1
		C26.1,3.6,26.4,3.6,26.7,3.7z M12.4,6.7c0.1-0.1,0.2-0.2,0.4-0.3c0,0,0,0,0,0C12.9,6.2,13,6.1,13.2,6c0,0,0,0,0,0
		c0.1-0.1,0.3-0.2,0.4-0.3c0,0,0,0,0,0c0.1-0.1,0.2-0.1,0.3-0.2c0,0,0,0,0.1,0c0.1-0.1,0.2-0.1,0.3-0.1c0,0,0,0,0,0
		c0.1,0,0.2-0.1,0.3-0.1c0,0,0,0,0.1,0c0.1,0,0.2-0.1,0.3-0.1c-0.4,0.3-0.7,0.6-0.9,0.8C13.5,6.2,12.9,6.5,12.4,6.7
		C12.3,6.7,12.3,6.7,12.4,6.7C12.4,6.7,12.4,6.7,12.4,6.7z M21.5,39.4c-0.1,0-0.1,0.1-0.2,0.1c-0.1,0-0.1,0-0.2,0.1
		c-0.1,0-0.1,0-0.2,0.1c-0.1,0-0.1,0-0.2,0.1c-0.1,0-0.1,0-0.2,0.1c-0.1,0-0.1,0-0.2,0.1c-0.1,0-0.1,0-0.2,0.1c-0.1,0-0.1,0-0.2,0.1
		c-0.1,0-0.1,0-0.2,0c-0.1,0-0.1,0-0.2,0.1c0,0-0.1,0-0.1,0c-0.1,0-0.1,0-0.2,0c0,0-0.1,0-0.1,0c-0.1,0-0.1,0-0.2,0c0,0-0.1,0-0.1,0
		c-0.1,0-0.2,0-0.4-0.1c-0.1-0.3-0.2-0.6-0.2-0.9c0.5,0,1,0.1,1.5,0.1c0.6,0,1.3,0,1.9-0.1c-0.1,0-0.1,0.1-0.2,0.1
		C21.6,39.4,21.6,39.4,21.5,39.4z M26.7,40.2c0,0-0.1,0-0.1,0c-0.1,0-0.1,0-0.2-0.1c0,0-0.1,0-0.1,0c-0.1,0-0.1,0-0.2-0.1
		c0,0-0.1,0-0.1,0c-0.1,0-0.1,0-0.2-0.1c0,0-0.1,0-0.1-0.1c-0.1,0-0.1-0.1-0.2-0.1c0,0-0.1,0-0.1-0.1c-0.1,0-0.1-0.1-0.2-0.1
		c0,0-0.1,0-0.1-0.1c-0.1,0-0.2-0.1-0.2-0.1c-0.1,0-0.1-0.1-0.2-0.1c0,0-0.1,0-0.1,0c0.8,0.1,1.6,0.1,2.3,0.1c0.1,0,0.2,0,0.3,0
		C27.1,39.7,27,40,27,40.2c0,0-0.1,0-0.1,0C26.8,40.2,26.7,40.2,26.7,40.2z M17.3,40.5c0,0-0.1,0-0.1,0c-0.1,0-0.1,0-0.2,0
		c0,0-0.1,0-0.1,0c-0.1,0-0.1,0-0.2,0c0,0-0.1,0-0.1,0c-0.1,0-0.1,0-0.2,0c0,0-0.1,0-0.1,0c-0.1,0-0.1,0-0.2,0c0,0-0.1,0-0.1,0
		c-0.1,0-0.1,0-0.2,0c0,0-0.1,0-0.1,0c0,0-0.1,0-0.1,0c0,0-0.1,0-0.1,0c0,0-0.1,0-0.1,0c0,0-0.1,0-0.1,0c0,0-0.1,0-0.1,0
		c0,0-0.1,0-0.1,0c0,0-0.1,0-0.1,0c0,0-0.1,0-0.1,0c0,0-0.1,0-0.1,0c0,0-0.1,0-0.1,0c0,0-0.1,0-0.1,0c0,0-0.1,0-0.1-0.1
		c0,0-0.1,0-0.1,0c0,0-0.1,0-0.1-0.1c0,0-0.1,0-0.1-0.1c-0.1,0-0.1-0.1-0.2-0.1c0,0-0.1,0-0.1,0c-0.1,0-0.2-0.1-0.2-0.1
		c-0.2-0.1-0.3-0.2-0.4-0.3c0,0,0,0,0,0c-0.1-0.1-0.3-0.2-0.4-0.3c0,0,0,0,0,0c-0.1-0.1-0.2-0.2-0.3-0.2c1.7,0.8,3.5,1.4,5.5,1.8
		c0,0,0,0,0,0C17.4,40.5,17.4,40.5,17.3,40.5z M20,42C20,42,20,42,20,42c-0.4-0.1-0.8-0.5-1.1-1.2c0.1,0,0.1,0,0.2,0
		c0.8,0.1,1.7,0.2,2.5,0.2C21,41.7,20.5,42.1,20,42z M25.9,42.1c-0.4,0.1-0.9-0.4-1.4-1.1c0.8,0,1.5-0.1,2.3-0.2
		C26.6,41.5,26.3,42,25.9,42.1z M30.3,40.5c-0.1,0-0.1,0-0.2,0c0,0-0.1,0-0.1,0c-0.1,0-0.1,0-0.2,0c0,0-0.1,0-0.1,0
		c-0.1,0-0.1,0-0.2,0c0,0-0.1,0-0.1,0c-0.1,0-0.1,0-0.2,0c0,0-0.1,0-0.1,0c-0.1,0-0.1,0-0.2,0c0,0-0.1,0-0.1,0c-0.1,0-0.1,0-0.2,0
		c0,0-0.1,0-0.1,0c-0.1,0-0.1,0-0.2,0c0,0-0.1,0-0.1,0c0,0,0,0,0,0c2-0.4,3.9-1,5.7-1.8c0,0,0,0-0.1,0.1c0,0,0,0,0,0
		c-0.1,0.1-0.2,0.2-0.4,0.3c0,0,0,0,0,0c-0.1,0.1-0.3,0.2-0.4,0.3c0,0,0,0,0,0c-0.1,0.1-0.3,0.2-0.4,0.3c0,0,0,0-0.1,0
		c-0.1,0-0.1,0.1-0.2,0.1c0,0,0,0-0.1,0c-0.1,0-0.1,0.1-0.2,0.1c0,0-0.1,0-0.1,0c-0.1,0-0.1,0-0.2,0.1c0,0-0.1,0-0.1,0
		c-0.1,0-0.1,0-0.2,0.1c0,0-0.1,0-0.1,0c0,0-0.1,0-0.1,0.1c0,0-0.1,0-0.1,0c-0.1,0-0.1,0-0.2,0c0,0-0.1,0-0.1,0c-0.1,0-0.1,0-0.2,0
		c0,0-0.1,0-0.1,0c-0.1,0-0.1,0-0.2,0c0,0-0.1,0-0.1,0c-0.1,0-0.1,0-0.2,0C30.4,40.5,30.4,40.5,30.3,40.5z M43,20.3l0-0.3
		c-0.1-0.4-0.1-0.9-0.2-1.3c-0.2-0.8-0.5-1.8-0.6-2.3c-0.2-0.7-0.6-1.6-1-2.4c-0.4-0.9-1.1-1.9-1.5-2.6c-0.2-0.2-0.4-0.5-0.6-0.8
		c-0.2-0.2-0.4-0.5-0.6-0.7c-0.2-0.3-0.4-0.5-0.6-0.7c-0.3-0.3-0.7-0.7-1-1c-0.3-0.3-0.8-0.7-1.3-1.1c-0.5-0.4-1.2-0.9-1.8-1.2
		c0,0,0,0,0,0c0,0-0.1-0.1-0.1-0.1c0,0-0.1,0-0.1-0.1c0,0-0.1-0.1-0.1-0.1c0,0,0,0,0,0c0,0,0,0-0.1,0c0,0,0,0,0,0c0,0,0,0,0,0
		c0,0,0,0,0,0c-0.4-0.2-0.8-0.5-1.2-0.7l-0.2-0.1c-0.3-0.1-0.6-0.3-0.9-0.4c-0.4-0.2-0.8-0.3-1.1-0.4c-1-0.4-1.5-0.5-2-0.6
		c-0.6-0.1-1-0.2-1.5-0.3c0,0,0,0,0,0c0,0,0,0,0,0c-0.1,0-0.2,0-0.4-0.1c-0.6-0.1-2.1-0.3-3.6-0.2c-0.3,0-1,0-1.8,0.1
		c-0.3,0-1,0.1-1.9,0.3c-0.3,0.1-0.7,0.2-1,0.3c-0.2,0.1-0.4,0.1-0.7,0.2c-0.1,0-0.2,0.1-0.3,0.1c-0.3,0.1-0.7,0.2-1,0.4l0,0
		C14.8,4.5,14,5,13.5,5.3c0,0-0.1,0-0.1,0c0,0,0,0,0,0c-0.1,0.1-0.2,0.1-0.3,0.2c-0.2,0.1-0.7,0.4-1.1,0.7c-0.5,0.4-1.2,0.9-1.6,1.2
		C9.6,8,8.7,8.9,8.3,9.3c-0.3,0.3-0.5,0.6-0.8,1c-0.1,0.1-0.2,0.2-0.3,0.3c-0.2,0.3-0.4,0.5-0.6,0.8c-0.2,0.4-0.6,0.9-0.9,1.4
		c-0.2,0.4-0.5,0.9-0.7,1.3c-1.1,2.3-1.5,4.3-1.7,5.5c-0.1,0.9-0.2,1.9-0.2,2.7c0,0,0,0,0,0c0,0.1,0,0.2,0,0.3c0,0,0,0.1,0,0.1
		c0,0,0,0,0,0c0,0.6,0,1.5,0.1,2.1c0,0.1,0,0.3,0.1,0.4c0,0.4,0.1,0.8,0.2,1.1c0.2,0.8,0.4,1.8,0.6,2.3c0.3,0.9,0.8,2.1,0.9,2.4
		C5.4,32,6,33,6.5,33.8C6.7,34.1,7,34.6,7.3,35c0.1,0.1,0.2,0.3,0.3,0.4C7.8,35.6,8,35.8,8.1,36c0.3,0.3,0.7,0.7,1,1
		c0.4,0.4,1,0.9,1.5,1.4c0.6,0.5,1.4,1.1,2,1.4c0,0,0,0,0,0c0,0,0,0,0.1,0c0,0,0.1,0.1,0.1,0.1c0.4,0.3,0.9,0.5,1.3,0.7l0.2,0.1
		c0.3,0.1,0.6,0.3,0.8,0.4c0.4,0.2,0.8,0.3,1.1,0.4c1,0.4,1.5,0.5,2,0.6c0.6,0.1,1,0.2,1.5,0.3c0,0,0,0,0,0c0.1,0,0.1,0,0.2,0
		c0.1,0,0.1,0,0.2,0c0.5,0.1,1.7,0.2,2.9,0.2c0.2,0,0.4,0,0.7,0c0.3,0,1,0,1.8-0.1c0.3,0,1-0.1,1.9-0.3c0.3-0.1,0.7-0.2,1-0.3
		c0.2-0.1,0.4-0.1,0.7-0.2c0.1,0,0.2-0.1,0.3-0.1c0.3-0.1,0.7-0.2,1-0.4l0,0c0.9-0.4,1.8-0.8,2.3-1.1c0,0,0,0,0,0c0,0,0,0,0,0
		c0.1-0.1,0.2-0.1,0.3-0.2c0.2-0.1,0.7-0.4,1.1-0.7c0.5-0.4,1.2-0.9,1.6-1.2c0.8-0.6,1.7-1.5,2-1.9c0.3-0.3,0.5-0.6,0.8-0.9
		c0.1-0.1,0.2-0.2,0.3-0.4c0.2-0.3,0.4-0.5,0.6-0.8c0.2-0.4,0.6-0.9,0.9-1.4c0.2-0.4,0.5-0.9,0.7-1.3c1.1-2.3,1.5-4.3,1.7-5.5
		c0.1-0.9,0.2-2,0.2-2.9c0,0,0-0.1,0-0.1c0,0,0,0,0-0.1c0,0,0,0,0-0.1C43.2,21.9,43.1,21,43,20.3z"/>
	<path id="Combined-Shape" class="st1" d="M11.1,24.8c-1.1,0-2-0.9-2-2s0.9-2,2-2s2,0.9,2,2S12.3,24.8,11.1,24.8z M29.1,14.8
		c-1.1,0-2-0.9-2-2s0.9-2,2-2s2,0.9,2,2S30.3,14.8,29.1,14.8z M28.1,35.8c-1.1,0-2-0.9-2-2s0.9-2,2-2s2,0.9,2,2S29.3,35.8,28.1,35.8
		z"/>
</g>
</svg>
