<?xml version="1.0" encoding="utf-8"?>
<!-- Generator: Adobe Illustrator 15.0.0, SVG Export Plug-In . SVG Version: 6.00 Build 0)  -->
<!DOCTYPE svg PUBLIC "-//W3C//DTD SVG 1.1//EN" "http://www.w3.org/Graphics/SVG/1.1/DTD/svg11.dtd">
<svg version="1.1" id="Layer_3" xmlns="http://www.w3.org/2000/svg" xmlns:xlink="http://www.w3.org/1999/xlink" x="0px" y="0px"
	 width="33.833px" height="33.25px" viewBox="-4.833 -4.25 33.833 33.25" enable-background="new -4.833 -4.25 33.833 33.25"
	 xml:space="preserve">
<path fill="#FFFFFF" d="M-2.188-2.063v28.375h28.375V-2.063H-2.188z M21.387,4.658l-1.52,1.457
	c-0.135,0.102-0.197,0.266-0.172,0.424v10.723c-0.025,0.165,0.037,0.329,0.172,0.424l1.487,1.457v0.324h-7.473v-0.312l1.538-1.494
	c0.153-0.152,0.153-0.197,0.153-0.425V8.565l-4.283,10.87h-0.576L5.729,8.565v7.285c-0.045,0.304,0.063,0.614,0.279,0.836
	L8.01,19.11v0.324H2.322V19.11l2.001-2.425c0.216-0.222,0.311-0.532,0.26-0.836V7.425c0.025-0.234-0.063-0.462-0.24-0.621
	l-1.78-2.147V4.334h5.529l4.27,9.374l3.756-9.367h5.27V4.658z"/>
</svg>
