<?xml version="1.0" encoding="utf-8"?>
<!-- Generator: Adobe Illustrator 15.0.0, SVG Export Plug-In . SVG Version: 6.00 Build 0)  -->
<!DOCTYPE svg PUBLIC "-//W3C//DTD SVG 1.1//EN" "http://www.w3.org/Graphics/SVG/1.1/DTD/svg11.dtd">
<svg version="1.1" xmlns="http://www.w3.org/2000/svg" xmlns:xlink="http://www.w3.org/1999/xlink" x="0px" y="0px" width="1280px"
	 height="904px" viewBox="0 0 1280 904" enable-background="new 0 0 1280 904" xml:space="preserve">
<g id="Layer_2">
	<path fill="#FFFFFF" d="M906.404,361.564c-21.646,0-40.756,8.981-54.802,23.026c-51.577-35.689-121.113-58.715-198.25-61.247
		l40.066-180.291l127.561,28.782c0,31.315,25.559,56.644,56.643,56.644c31.775,0,57.334-26.02,57.334-57.333
		c0-31.315-25.559-57.334-57.334-57.334c-22.335,0-41.445,13.355-50.887,31.776l-140.916-31.315
		c-6.907-1.841-14.046,3.224-15.887,10.132l-43.979,198.94c-76.444,3.224-145.291,26.019-196.868,61.708
		c-14.045-14.736-33.846-23.487-55.491-23.487c-80.359,0-106.608,107.991-33.157,144.601c-2.533,11.513-3.914,23.485-3.914,35.689
		c0,121.114,136.31,219.202,303.937,219.202c168.315,0,304.626-98.088,304.626-219.202c0-12.204-1.382-24.868-4.375-36.381
		C1012.781,468.632,986.302,361.564,906.404,361.564L906.404,361.564z"/>
</g>
<g id="Layer_1">
	<path fill="#0C2E73" d="M514.51,570.405c-31.775,0-57.333-25.559-57.333-56.642c0-31.775,25.559-57.334,57.333-57.334
		c31.315,0,56.643,25.559,56.643,57.334C571.153,545.078,545.594,570.405,514.51,570.405z M747.758,629.12
		c-41.905,41.908-175.223,41.217-215.518,0c-5.066-5.065-14.046-5.065-19.112,0c-5.757,5.757-5.757,14.736,0,19.803
		c52.499,52.497,201.012,52.497,253.741,0c5.757-5.066,5.757-14.046,0-19.803C761.804,624.055,752.824,624.055,747.758,629.12z
		 M765.487,456.43c-31.314,0-56.643,25.559-56.643,57.334c0,31.314,25.56,56.642,56.643,56.642
		c31.775,0,57.334-25.559,57.334-56.642C822.821,481.988,797.492,456.43,765.487,456.43z"/>
</g>
</svg>
